<?xml version="1.0" encoding="UTF-8" standalone="no"?>
<!-- Created with Inkscape (http://www.inkscape.org/) -->

<svg
   width="580"
   height="580"
   viewBox="0 0 153.45833 153.45833"
   version="1.1"
   id="svg5"
   xml:space="preserve"
   inkscape:version="1.2.2 (732a01da63, 2022-12-09)"
   sodipodi:docname="IR Logo.svg"
   xmlns:inkscape="http://www.inkscape.org/namespaces/inkscape"
   xmlns:sodipodi="http://sodipodi.sourceforge.net/DTD/sodipodi-0.dtd"
   xmlns="http://www.w3.org/2000/svg"
   xmlns:svg="http://www.w3.org/2000/svg"><sodipodi:namedview
     id="namedview7"
     pagecolor="#ffffff"
     bordercolor="#000000"
     borderopacity="0.25"
     inkscape:showpageshadow="2"
     inkscape:pageopacity="0.0"
     inkscape:pagecheckerboard="0"
     inkscape:deskcolor="#d1d1d1"
     inkscape:document-units="mm"
     showgrid="false"
     inkscape:zoom="0.12661556"
     inkscape:cx="-552.85462"
     inkscape:cy="809.53713"
     inkscape:window-width="1920"
     inkscape:window-height="991"
     inkscape:window-x="-9"
     inkscape:window-y="-9"
     inkscape:window-maximized="1"
     inkscape:current-layer="layer1" /><defs
     id="defs2" /><g
     inkscape:label="Layer 1"
     inkscape:groupmode="layer"
     id="layer1"><path
       style="display:inline;fill:#ff0000;fill-opacity:1;stroke-width:0.272607"
       d="m 71.014646,153.39783 c -0.524779,-0.0604 -2.119512,-0.2435 -3.543896,-0.40616 -9.928906,-1.13473 -20.294298,-4.56013 -29.032663,-9.59436 C 28.927976,137.91847 19.691753,129.38706 13.43235,120.2997 6.4532437,110.16744 2.3843421,99.656308 0.50520229,86.905332 -0.10044161,82.795611 -0.18165946,71.349846 0.36689072,67.413917 2.1638155,54.521025 6.0316507,44.142767 12.812489,34.019549 16.041646,29.198747 19.012772,25.670032 23.506483,21.318654 35.471947,9.7321639 50.091063,2.7469786 67.47075,0.31195483 70.822201,-0.15759691 82.816098,-0.16583127 86.144326,0.29908864 104.42953,2.8536071 119.2787,10.300528 131.8887,23.240156 c 11.71605,12.022268 18.76351,26.691112 21.22273,44.173728 0.23159,1.647323 0.35797,5.119491 0.3469,9.541247 -0.0193,8.017666 -0.48971,11.905894 -2.28514,18.917069 -3.37445,13.17714 -9.75872,24.46828 -19.49492,34.47844 -11.69978,12.02896 -26.96668,19.85996 -43.66143,22.39567 -3.610062,0.5483 -14.336929,0.95934 -17.002194,0.65149 z m 5.985257,-26.55558 c 0.11258,-0.22483 0.619732,-0.47022 1.126757,-0.5452 l 0.921927,-0.13638 -0.809509,-0.58834 c -0.786188,-0.57142 -0.799086,-0.61713 -0.448032,-1.58788 0.448161,-1.2394 0.23127,-1.50724 -0.593229,-0.73267 -0.784001,0.73653 -1.017233,0.73763 -1.94331,0.01 l -0.740577,-0.58255 0.185916,1.23988 c 0.169834,1.13323 0.124802,1.27984 -0.522914,1.70432 -0.972941,0.63749 -0.88825,0.94695 0.259253,0.94695 0.860202,0 1.016076,0.11387 1.39936,1.02229 0.43105,1.02167 0.431468,1.02186 0.695417,0.34076 0.145389,-0.37482 0.356298,-0.86554 0.468974,-1.09044 z m -16.206772,-2.88013 1.042837,0.19557 -0.453887,-0.69271 c -0.584254,-0.89166 -0.571645,-1.15774 0.09521,-2.0054 0.686219,-0.87239 0.539383,-1.03501 -0.581713,-0.64421 -0.82112,0.28627 -0.927814,0.24832 -1.638477,-0.58184 l -0.760167,-0.88802 -0.0096,0.9889 c -0.01287,1.08101 -0.27405,1.39182 -1.510395,1.793 l -0.81784,0.26536 1.022284,0.37125 c 0.97516,0.35412 1.022605,0.42838 1.029617,1.61137 l 0.0064,1.2401 0.766761,-0.9245 c 0.704842,-0.84988 0.850969,-0.90873 1.809597,-0.7289 z m 34.429645,-1.24264 1.008034,-0.33919 -1.022283,-0.39577 c -0.936659,-0.36263 -1.022283,-0.48402 -1.022283,-1.44921 0,-1.26356 -0.342498,-1.34445 -0.997484,-0.23577 -0.547683,0.92717 -0.478591,0.90368 -1.662248,0.56424 -1.02936,-0.29527 -1.100189,-0.0945 -0.317795,0.90006 l 0.566401,0.72003 -0.616354,0.99726 -0.616324,0.99722 0.595191,-0.18109 c 0.327316,-0.0997 0.828551,-0.25379 1.113827,-0.34231 0.373955,-0.11611 0.697251,0.0813 1.1586,0.70803 l 0.6399,0.86917 0.08235,-1.23679 c 0.0772,-1.15735 0.147318,-1.25863 1.090409,-1.57598 z m -45.263302,-2.21534 c 0.31683,-0.33735 0.815846,-1.14978 1.109259,-1.80545 l 0.533432,-1.19208 0.473155,0.99707 c 1.110352,2.3399 3.133464,2.35125 4.295411,0.0225 0.47116,-0.9436 0.774191,-2.80963 0.485281,-2.98817 -0.108077,-0.0666 -1.352013,-0.006 -2.76456,0.1322 -1.412515,0.1396 -6.003076,0.50394 -10.201219,0.80986 -10.115498,0.73714 -10.767975,0.81305 -10.767975,1.25291 0,0.20007 0.52047,0.49351 1.158601,0.65332 0.637198,0.15953 1.563467,0.47196 2.058366,0.69422 0.681779,0.30622 1.034828,0.33182 1.456904,0.10582 0.451056,-0.24155 0.672322,-0.18977 1.162331,0.27052 0.817454,0.76798 1.638735,0.71523 2.447665,-0.1573 l 0.672966,-0.72571 0.725332,0.86204 c 0.951809,1.13112 1.902363,1.1484 2.529687,0.046 0.497986,-0.87514 0.873292,-1.0606 0.873292,-0.43157 0,0.21325 0.317474,0.76544 0.705744,1.22676 0.882266,1.04847 2.183232,1.14474 3.046328,0.22548 z m 30.153373,-1.73262 c 2.160684,-1.25838 2.6239,-1.6434 2.6239,-2.18085 0,-0.58259 0.120298,-0.65267 1.119648,-0.65267 0.77834,0 1.691872,-0.31169 2.996857,-1.02229 1.821693,-0.99204 2.379989,-1.53889 1.403799,-1.37501 -0.378749,0.0637 -0.477079,-0.11644 -0.477079,-0.874 0,-0.87718 0.07141,-0.96101 0.885967,-1.03955 0.825366,-0.0795 0.885998,-0.0289 0.885998,0.74967 0,0.45929 0.06144,0.83508 0.136382,0.83508 0.07495,0 1.66971,-0.88776 3.543864,-1.97283 l 3.407547,-1.97284 0.0193,-2.45703 c 0.01287,-1.35137 0.06401,-2.68492 0.11644,-2.96343 0.249282,-1.32072 1.106428,-1.26553 -19.657904,-1.26553 H 57.655324 v 3.25519 c 0,1.79036 0.11483,3.3261 0.255072,3.41276 0.140241,0.0865 0.293671,-0.2435 0.340761,-0.73357 0.08363,-0.87018 0.119334,-0.8931 1.516989,-0.97355 0.787153,-0.0454 1.431203,0.01 1.431203,0.1248 0,0.11386 -0.45408,0.67222 -1.009064,1.24059 -1.114823,1.14168 -1.102729,1.17652 0.763899,2.19909 1.104208,0.60491 1.476653,0.6692 3.114712,0.53775 l 1.860516,-0.14926 -0.62282,0.87468 c -0.342562,0.48106 -0.578786,0.90562 -0.524941,0.94344 1.3698,0.96217 4.366561,2.44754 5.149823,2.55262 0.685671,0.092 0.994427,0.25605 0.907517,0.48264 -0.127375,0.3319 5.667398,3.93963 6.341875,3.94838 0.168547,0.002 1.487396,-0.6837 2.930533,-1.52419 z m -2.111278,-0.99344 c 0.03924,-0.63723 0.07784,-1.31193 0.08589,-1.49935 0.01608,-0.3766 2.740949,-0.50188 2.740949,-0.12609 0,0.23577 -2.520134,2.78398 -2.753269,2.78398 -0.07945,0 -0.112901,-0.52136 -0.07366,-1.15857 z m -4.973974,-0.32483 c -0.338896,-0.88314 0.0193,-1.37746 1.056153,-1.46357 0.863097,-0.0717 1.02,-0.002 1.02,0.45476 0,1.01247 -0.313292,1.40178 -1.12814,1.40178 -0.44279,0 -0.864255,-0.17467 -0.948013,-0.39297 z m -0.104538,-4.37763 v -1.49937 h 1.55816 1.558193 l -1.480706,1.49937 c -0.814398,0.82463 -1.515574,1.49933 -1.558192,1.49933 -0.04246,0 -0.07751,-0.6747 -0.07751,-1.49933 z m 10.086453,-0.10164 v -1.39776 h 1.55385 c 0.869144,0 1.439759,0.10165 1.294886,0.23063 -0.142493,0.12674 -0.841674,0.75579 -1.553851,1.39778 l -1.294885,1.16723 z m -14.708344,0.3892 c -0.179805,-0.21679 -0.286915,-0.67667 -0.237702,-1.02229 0.07366,-0.5194 0.254428,-0.62834 1.043222,-0.62834 0.838168,0 0.964611,0.091 1.040361,0.74952 0.06883,0.59807 -0.05886,0.80465 -0.631119,1.02228 -0.895487,0.34047 -0.82572,0.34742 -1.214601,-0.12126 z m 9.858979,0.0531 c -0.155038,-0.18752 -0.215831,-0.68471 -0.135095,-1.10511 0.128018,-0.66717 0.255072,-0.75383 0.998094,-0.68152 0.701144,0.0682 0.866603,0.21519 0.937624,0.83238 0.06883,0.59808 -0.05886,0.80465 -0.631119,1.02228 -0.888668,0.33787 -0.831059,0.34125 -1.169504,-0.0682 z m -10.09012,-4.3617 0.08235,-1.43117 1.431202,-0.0823 c 0.787123,-0.0454 1.431172,0.0193 1.431172,0.14668 0,0.28466 -2.531038,2.79824 -2.817825,2.79824 -0.115153,0 -0.172408,-0.64405 -0.127053,-1.43121 z m 9.978956,1.25288 c -0.06497,-0.12674 -0.09489,-0.38393 -0.06626,-0.57136 0.02895,-0.18752 0.06723,-0.77011 0.08589,-1.29488 l 0.03409,-0.95413 h 1.363045 c 0.749681,0 1.363044,0.0965 1.363044,0.21486 0,0.36332 -2.653974,2.85116 -2.779676,2.60567 z m 9.594835,-1.32104 v -1.49933 h 1.499362 c 0.824627,0 1.49933,0.0354 1.49933,0.0785 0,0.16277 -2.675236,2.92018 -2.833297,2.92018 -0.09103,0 -0.16533,-0.6747 -0.16533,-1.49936 z m -24.716505,0.25218 c -0.07366,-0.19171 -0.0936,-0.63373 -0.04407,-0.98198 0.07108,-0.50188 0.259254,-0.63318 0.907517,-0.63318 0.75293,0 0.81784,0.0756 0.81784,0.95412 0,0.85976 -0.07655,0.95686 -0.773708,0.98195 -0.425518,0.016 -0.833923,-0.12898 -0.907518,-0.32101 z m 20.350587,0.15407 c -0.171763,-0.10615 -0.271476,-0.54756 -0.221941,-0.98111 0.07688,-0.67406 0.208432,-0.78822 0.907806,-0.78822 0.716454,0 0.8281,0.10551 0.900666,0.85139 0.07012,0.72057 -0.02252,0.8713 -0.595737,0.98108 -0.373217,0.0714 -0.818998,0.0431 -0.990632,-0.063 z m 10.415731,0.0788 c -0.523364,-0.0985 -0.614972,-0.26344 -0.545205,-0.9832 0.07366,-0.75956 0.193958,-0.87552 0.987384,-0.95169 0.890147,-0.0856 0.902274,-0.0717 0.817807,0.93306 -0.09007,1.07343 -0.240919,1.1933 -1.259986,1.00183 z M 72.923057,108.4411 c 0,-0.90867 0.04536,-0.95412 0.954124,-0.95412 0.908676,0 0.954125,0.0454 0.954125,0.95412 0,0.90871 -0.04536,0.95412 -0.954125,0.95412 -0.908706,0 -0.954124,-0.0454 -0.954124,-0.95412 z m -10.086485,-3.5439 v -1.49932 h 1.558193 1.558192 l -1.480738,1.49932 c -0.814366,0.82466 -1.515573,1.49937 -1.55816,1.49937 -0.04246,0 -0.07751,-0.67471 -0.07751,-1.49937 z m 10.086485,0 v -1.49932 h 1.55816 1.558193 l -1.480706,1.49932 c -0.814398,0.82466 -1.515574,1.49937 -1.558192,1.49937 -0.04246,0 -0.07751,-0.67471 -0.07751,-1.49937 z m 10.086453,0 v -1.49932 h 1.558192 1.55816 l -1.480705,1.49932 c -0.814398,0.82466 -1.515574,1.49937 -1.558193,1.49937 -0.04246,0 -0.07751,-0.67471 -0.07751,-1.49937 z m 10.086452,0 v -1.49932 h 1.558193 1.55816 l -1.480706,1.49932 c -0.814398,0.82466 -1.515573,1.49937 -1.55816,1.49937 -0.04246,0 -0.07752,-0.67471 -0.07752,-1.49937 z m -34.842811,-0.47704 c 0.07495,-0.77905 0.19235,-0.89629 0.971398,-0.9714 0.84978,-0.082 0.885966,-0.0457 0.885966,0.88596 0,0.93171 -0.03956,0.9714 -0.971397,0.9714 -0.931706,0 -0.967892,-0.0361 -0.885967,-0.88596 z m 9.867663,0.49296 c -0.339956,-0.8859 0.01287,-1.37893 0.989475,-1.37893 0.872972,0 0.957341,0.072 1.035793,0.88597 0.08202,0.8511 0.04696,0.88596 -0.894522,0.88596 -0.601945,0 -1.038109,-0.1515 -1.130746,-0.393 z m 9.978056,0.0694 c -0.0022,-0.19685 -0.07751,-0.63404 -0.168226,-0.9714 -0.151178,-0.56447 -0.07366,-0.61335 0.975097,-0.61335 1.121385,0 1.138144,0.0129 1.054095,0.88596 -0.07495,0.77904 -0.19235,0.89629 -0.971398,0.9714 -0.591909,0.057 -0.88722,-0.0335 -0.889697,-0.27277 z m 9.726713,0.14185 c -0.100034,-0.10003 -0.181735,-0.52931 -0.181735,-0.95412 0,-0.69606 0.09135,-0.77239 0.923182,-0.77239 0.817711,0 0.936917,0.0936 1.043416,0.81938 0.06626,0.45064 0.0595,0.87999 -0.01608,0.95412 -0.199426,0.19944 -1.55993,0.1634 -1.770389,-0.047 z m -16.267661,14.4255 c -0.0011,-0.11258 -0.522529,-0.4977 -1.158601,-0.85611 -0.636041,-0.35843 -1.958846,-1.18556 -2.93954,-1.83811 -0.980693,-0.65253 -2.820784,-1.53866 -4.089101,-1.96916 -1.268318,-0.43047 -3.134076,-1.15973 -4.146131,-1.62053 l -1.840091,-0.83772 v 1.613 c 0,1.58968 0.01608,1.62054 1.022284,2.13318 1.848389,0.94058 5.877181,2.25091 8.927883,2.90372 3.200048,0.68476 4.226674,0.79947 4.223297,0.47183 z m 14.859167,-0.73028 c 7.762882,-1.88345 14.274521,-5.45074 20.047361,-10.98249 8.19783,-7.855456 12.76905,-17.470748 13.60022,-28.606986 0.58205,-7.798618 -0.92207,-15.359148 -4.49298,-22.584319 -2.23065,-4.513333 -4.7181,-7.99264 -8.18065,-11.442646 C 103.842,41.667054 100.42281,39.238818 95.685734,36.890415 88.563106,33.359353 82.639285,32.072862 74.694989,32.33173 67.869312,32.554315 62.565353,33.872971 56.727768,36.799129 40.820713,44.772728 30.893576,62.338556 32.533951,79.609364 c 0.599533,6.312315 1.773412,10.447863 4.547042,16.019279 2.088247,4.194665 3.567957,6.349177 4.03783,5.879307 0.237703,-0.2377 0.198139,-0.517 -0.160828,-1.14259 -0.56772,-0.989213 -0.583642,-1.510133 -0.07398,-2.419548 0.351279,-0.626744 0.304929,-0.822278 -0.575955,-2.433061 -6.547928,-11.97283 -6.473401,-27.080154 0.192993,-39.139508 1.947844,-3.523536 3.754419,-5.857014 7.186252,-9.28222 5.798857,-5.787632 12.923319,-9.58139 21.052116,-11.210218 3.39973,-0.681232 11.794247,-0.678724 15.20633,0.0032 8.154336,1.632881 15.228652,5.429598 21.149389,11.350717 1.78701,1.787147 3.85715,4.19676 4.80523,5.593257 7.45937,10.987535 9.27778,23.833176 5.1383,36.298009 -3.73891,11.258562 -12.32433,20.340362 -23.636478,25.003032 -2.470149,1.01814 -6.431585,3.47728 -8.242953,5.11695 -0.419597,0.37988 0.34073,0.28016 3.257656,-0.42771 z m 43.800381,-2.40862 c 2.76016,-2.08194 3.20455,-6.16613 0.80591,-7.40652 -1.59602,-0.82534 -2.53647,-0.54488 -5.33432,1.59077 -1.52201,1.16179 -1.7885,1.20637 -1.7885,0.29947 0,-0.84731 0.86145,-1.73977 1.87496,-1.94248 0.57077,-0.11419 0.9179,-0.46318 1.35449,-1.36178 0.74243,-1.52816 0.73598,-1.64247 -0.10487,-1.85348 -1.77003,-0.44424 -4.30248,1.13727 -5.45131,3.40433 -1.54851,3.05585 -0.27566,5.97883 2.60354,5.97883 1.0726,0 1.69239,-0.32529 3.4467,-1.80909 0.77358,-0.65428 1.53303,-1.18957 1.68772,-1.18957 1.07774,0 0.17626,2.03108 -1.00662,2.26763 -0.80318,0.1605 -1.40612,1.19289 -1.40612,2.40736 0,0.89456 1.91646,0.672 3.31826,-0.38537 z m -82.51656,-0.90543 c 4.944543,-0.38039 9.007655,-0.71475 9.029173,-0.74302 0.165975,-0.21841 0.260219,-2.95668 0.10486,-3.05267 -0.156324,-0.0968 -16.128031,3.23418 -18.396824,3.83664 -0.421786,0.11194 -0.452633,0.0869 -0.136381,-0.11129 0.224836,-0.14088 4.480523,-1.26201 9.456974,-2.4916 l 9.048022,-2.2356 0.178518,-0.81218 c 0.0981,-0.44671 0.09585,-0.89485 -0.0064,-0.99581 -0.101,-0.101 -2.596784,0.63372 -5.54623,1.63262 -13.102449,4.43745 -16.011206,5.45967 -16.266922,5.71651 -0.182379,0.18335 0.358131,0.22001 1.635647,0.11097 1.049527,-0.0897 5.953768,-0.47414 10.898278,-0.85453 z m 59.6719,0.41114 0.72002,-0.56637 0.95239,0.5886 c 1.0412,0.6435 1.18504,0.42172 0.538,-0.82948 -0.3948,-0.76345 -0.3819,-0.82955 0.27244,-1.39866 0.94023,-0.81751 0.86451,-1.04422 -0.34867,-1.04422 -0.94776,0 -1.06777,-0.0869 -1.4141,-1.02228 l -0.37843,-1.02228 -0.31264,1.09044 c -0.28403,0.99034 -0.40442,1.09819 -1.31197,1.17503 -1.21273,0.10261 -1.27379,0.44096 -0.18141,1.00582 0.91508,0.47322 0.91646,0.47743 0.56425,1.7056 -0.29528,1.02936 -0.0945,1.1002 0.90006,0.3178 z m -65.490025,-2.82499 c 4.102868,-1.41544 9.147832,-3.14749 11.211055,-3.84896 3.076982,-1.04618 3.772593,-1.37987 3.869669,-1.85633 0.197817,-0.97009 0.384956,-40.518832 0.191706,-40.504454 -0.09907,0.0064 -1.43204,1.853214 -2.962538,4.101839 l -2.782733,4.088394 -0.56386,3.149451 c -0.680204,3.79929 -1.338888,5.75656 -2.552236,7.583978 -1.295592,1.951287 -1.81381,3.021915 -1.81381,3.74715 0,0.346584 -0.936596,2.1621 -2.081301,4.034516 -1.144705,1.872386 -2.328073,3.812994 -2.629721,4.312428 -0.520985,0.862613 -0.52597,0.955186 -0.09971,1.849354 0.247032,0.517704 0.44887,1.052904 0.44887,1.189344 0,0.13639 -1.53796,2.98445 -3.417711,6.32888 -2.078212,3.69759 -3.368112,6.2762 -3.291173,6.5794 0.08009,0.31586 0.0032,0.45173 -0.206502,0.37076 -0.183343,-0.0704 -0.536585,0.22677 -0.785256,0.65997 -0.24864,0.4333 -0.349221,0.7878 -0.22355,0.7878 0.125767,0 3.585616,-1.15808 7.688484,-2.57352 z m -5.295982,0.22226 c -0.212615,-0.21261 0.08042,-0.92007 0.38129,-0.92007 0.311361,0 0.318438,0.73923 0.0096,0.93062 -0.128984,0.0798 -0.304608,0.0749 -0.390136,-0.01 z m 1.71516,-1.68339 c 0,-0.73574 0.419566,-1.41753 0.872327,-1.41753 0.426129,0 0.230949,1.84495 -0.213256,2.01536 -0.640897,0.24607 -0.659232,0.22935 -0.659232,-0.59783 z m 1.960711,-1.7256 c 0.0669,-0.89704 0.264079,-1.2643 0.969789,-1.80687 l 0.885998,-0.68101 v 1.38251 c 0,1.11961 -0.115152,1.46321 -0.605869,1.8069 -1.031611,0.72256 -1.342941,0.54783 -1.249918,-0.70153 z m 2.85533,-0.6915 c -0.100035,-0.10004 -0.181735,-0.72543 -0.181735,-1.38997 0,-1.00012 0.14571,-1.34445 0.84666,-1.99911 0.46566,-0.43501 0.956344,-0.79088 1.090442,-0.79088 0.13413,0 0.243815,0.72767 0.243815,1.61708 0,1.47376 -0.07012,1.66704 -0.791754,2.18085 -0.874257,0.62253 -0.944636,0.64479 -1.207363,0.38203 z m 5.270412,-16.019891 v -3.389116 l 1.84009,-2.181592 c 1.012055,-1.199869 1.932116,-2.189569 2.044567,-2.199347 0.323103,-0.02895 0.240919,7.784305 -0.0891,8.488408 -0.28402,0.60574 -3.021079,2.670731 -3.539844,2.670731 -0.145387,0 -0.255714,-1.461696 -0.255714,-3.389084 z m 15.832783,18.973841 c -0.763801,-0.11226 -1.091214,0.17498 -0.568042,0.49831 0.244779,0.15117 0.540058,0.12029 0.786768,-0.083 0.332977,-0.27405 0.298818,-0.33928 -0.218726,-0.41532 z m -4.123035,-3.71145 c 0.30525,-0.36793 0.239632,-0.42381 -0.499499,-0.42381 -0.729352,0 -0.851195,0.0991 -0.851195,0.69111 0,0.58554 0.07624,0.65028 0.499499,0.42381 0.274693,-0.147 0.657752,-0.45803 0.851195,-0.69111 z m 39.455984,-0.81411 c 1.726092,-1.25599 5.264072,-4.45022 5.263762,-4.75231 -1.7e-4,-0.13607 -5.738814,-0.18657 -7.292085,-0.0637 -0.500688,0.0395 -0.487146,6.02428 0.01287,6.02428 0.194923,0 1.101539,-0.54366 2.014718,-1.20814 z m 36.720442,-0.1605 c 0.59213,-1.4799 0.59017,-1.48875 -0.65193,-2.9618 -0.59973,-0.71128 -1.09041,-1.36986 -1.09041,-1.46359 0,-0.0936 0.86499,-0.25572 1.92221,-0.35984 l 1.92218,-0.18946 0.66755,-1.31737 c 0.9286,-1.83246 0.88765,-2.213782 -0.2184,-2.034041 -0.48728,0.07913 -2.07577,0.276302 -3.53,0.437901 l -2.64403,0.29399 -2.23033,-0.980595 c -1.22669,-0.539351 -2.26795,-0.943027 -2.31392,-0.897031 -0.15246,0.152465 -1.20826,2.703566 -1.20826,2.919566 0,0.11676 0.95072,0.61073 2.11269,1.09778 1.16202,0.48708 2.19343,1.0144 2.29208,1.17188 0.57753,0.92187 4.16856,5.37855 4.33382,5.37855 0.10904,0 0.39557,-0.49319 0.63675,-1.09594 z M 34.485463,102.72612 c 0,-1.0017 0.54379,-1.50892 1.617732,-1.50892 0.875512,0 0.664571,-0.39901 -0.417862,-0.79043 -0.974937,-0.35253 -0.979922,-0.36251 -0.812244,-1.622236 l 0.168548,-1.267545 -0.775091,0.885998 c -0.877732,1.003274 -1.119391,1.053806 -2.248272,0.470034 -0.938074,-0.485087 -0.950844,-0.455109 -0.345875,0.813498 0.443916,0.930901 0.439605,0.981271 -0.136382,1.594311 -0.852771,0.90772 -0.746786,1.06301 0.588822,0.86272 1.131678,-0.16984 1.198807,-0.14057 1.532396,0.66482 0.461381,1.1138 0.827972,1.06854 0.827972,-0.10228 z m 84.585797,0.15279 c 0.4278,-0.72425 0.56672,-0.77937 1.62626,-0.64541 l 1.15851,0.14668 -0.81453,-0.86841 c -0.81215,-0.86593 -0.81312,-0.87084 -0.33224,-1.708722 0.26536,-0.462155 0.43967,-0.882879 0.38763,-0.934922 -0.0521,-0.05211 -0.48229,0.05178 -0.9561,0.230626 -0.79522,0.300105 -0.92662,0.263114 -1.70968,-0.481807 l -0.84824,-0.806935 0.0904,1.082658 c 0.0843,1.009323 0.0193,1.122772 -0.96478,1.674532 l -1.05518,0.59192 0.9205,0.19717 c 1.24864,0.2673 1.60201,0.60483 1.60201,1.53046 0,0.99925 0.30236,0.99675 0.89542,-0.006 z m -54.871644,-0.81463 c 0,-0.44479 -0.835402,-0.57438 -3.702472,-0.57438 -2.342773,0 -2.840083,0.0717 -2.840083,0.40892 0,0.34077 0.545205,0.40889 3.271294,0.40889 1.799208,0 3.271261,-0.10969 3.271261,-0.24349 z m 32.53883,-0.16533 c 0.133165,-0.34732 -0.269547,-0.40892 -2.674592,-0.40892 -2.858997,0 -3.693949,0.12995 -3.693949,0.57438 0,0.1338 1.397623,0.2435 3.105803,0.2435 2.509262,0 3.135974,-0.0785 3.262738,-0.40889 z m -9.77612,-0.13638 c -0.107111,-0.17337 -3.632223,-0.27276 -9.677565,-0.27276 -6.04531,0 -9.570422,0.0994 -9.677533,0.27276 -0.110971,0.1798 3.182936,0.27244 9.677533,0.27244 6.494597,0 9.788697,-0.0929 9.677565,-0.27244 z m -19.644137,-0.581 c 1.019003,-0.80154 1.330944,-1.734563 0.957856,-2.865018 -0.394413,-1.195076 -1.206174,-1.733527 -2.61351,-1.733527 -0.940358,0 -1.266355,0.147961 -1.847586,0.838747 -2.055181,2.442453 1.004046,5.725678 3.50324,3.759798 z m 23.345291,-0.21583 c 1.044445,-1.04445 1.07854,-2.370475 0.09103,-3.543968 -0.593678,-0.705518 -0.898704,-0.838747 -1.920633,-0.838747 -1.669614,0 -2.556577,0.874708 -2.544483,2.509229 0.01287,1.735226 0.926526,2.646096 2.670218,2.662016 0.645979,0.006 1.136245,-0.22098 1.703805,-0.78853 z m 16.41684,-0.63434 c 1.35278,-1.674956 3.18989,-4.444339 3.18989,-4.808646 0,-0.228375 -1.74488,-0.293027 -6.4744,-0.239632 l -6.474429,0.07302 -0.07849,2.706662 c -0.0431,1.488682 -0.01608,2.868736 0.0595,3.066846 0.106468,0.27758 1.135055,0.36016 4.490229,0.36016 h 4.35202 z M 19.006306,99.823248 c 0.717644,-0.8474 0.851389,-2.150327 0.361412,-3.521446 -0.590269,-1.651826 -0.595158,-1.682512 -0.284665,-1.78602 0.149891,-0.04985 0.520502,0.302677 0.823469,0.783744 1.198937,1.903585 3.40195,0.490363 3.40195,-2.182299 0,-1.852186 -0.380228,-2.354996 -1.629761,-2.155185 l -1.032544,0.16501 -0.319081,-1.267803 c -0.348835,-1.385367 -0.163079,-1.714774 0.971751,-1.722944 0.319082,-0.0022 0.695386,-0.157611 0.836432,-0.344943 0.345811,-0.459548 0.90668,-2.427818 0.75962,-2.665747 -0.06465,-0.104859 -2.05293,0.148926 -4.418155,0.563958 -2.365257,0.414935 -4.392454,0.697669 -4.504905,0.628288 -0.112579,-0.06948 -0.204572,-0.529862 -0.204572,-1.023249 v -0.897127 l 3.710578,-0.347387 3.710546,-0.347387 0.620376,-1.397334 c 0.341211,-0.768529 0.512331,-1.437957 0.380292,-1.487621 -0.131879,-0.04954 -2.082844,0.109685 -4.335103,0.354271 -2.252259,0.244457 -4.215833,0.36987 -4.363473,0.278553 -0.14764,-0.09136 -0.268261,-1.137726 -0.268261,-2.325468 0,-2.109766 0.01608,-2.163773 0.723724,-2.341229 1.095621,-0.275016 1.609658,0.195888 1.502514,1.376007 -0.05018,0.550898 0.05694,1.179926 0.237703,1.397784 0.449256,0.541312 1.878272,0.495219 2.764399,-0.0891 1.347765,-0.888861 3.760595,-4.420277 4.185212,-6.125402 0.297208,-1.19424 -0.789309,-1.010253 -1.610044,0.272441 -0.359739,0.562254 -1.036533,1.383116 -1.504058,1.82417 L 18.671657,76.2417 17.725059,75.32418 C 16.722364,74.352368 15.828196,74.172917 14.10805,74.59837 l -0.885966,0.219046 0.0064,-1.725452 c 0.0096,-2.94549 1.132901,-9.868661 1.655172,-10.191409 0.399624,-0.247031 1.323127,0.144422 1.193885,0.506156 -0.06433,0.179805 -0.29946,1.393344 -0.522431,2.696883 -0.478204,2.794441 -0.25861,3.812382 0.928006,4.303967 1.395339,0.577949 4.298306,-0.678177 5.971619,-2.584014 0.895359,-1.019743 1.005364,-1.3863 0.605516,-2.017774 -0.193315,-0.304928 -0.478205,-0.189776 -1.427022,0.577339 -1.505699,1.21727 -2.2034,1.575819 -3.066368,1.575819 -1.045282,0 -1.246992,-0.70957 -0.736203,-2.589772 0.43581,-1.60435 0.462507,-1.635486 1.394309,-1.626898 0.522528,0.0032 1.417757,0.103895 1.989403,0.220013 0.968792,0.196852 1.103341,0.141527 1.980043,-0.815654 0.517349,-0.564825 0.898639,-1.152907 0.847335,-1.306883 -0.05147,-0.154072 -1.985093,-0.630346 -4.297213,-1.058565 -2.312118,-0.428252 -4.225386,-0.798927 -4.251697,-0.823791 -0.02573,-0.02573 0.09103,-0.565437 0.260862,-1.201349 0.191063,-0.715746 0.466045,-1.156188 0.72189,-1.156188 0.22741,0 1.916098,0.52137 3.752843,1.158569 l 3.33955,1.158601 1.020546,-1.017749 c 0.628096,-0.62639 0.919193,-1.108487 0.756983,-1.253746 -0.145067,-0.129949 -2.011598,-0.830127 -4.148158,-1.556231 -2.204139,-0.74907 -3.884658,-1.466681 -3.884658,-1.658806 0,-0.736943 1.456486,-3.645797 1.825488,-3.645797 0.215187,0 0.641219,0.133809 0.946823,0.297209 0.492164,0.263436 0.534784,0.463987 0.373313,1.756268 l -0.182378,1.45893 0.998095,0.187203 c 2.345089,0.439928 4.291583,-0.997966 4.62411,-3.415878 0.206824,-1.503382 0.20618,-1.502835 0.984585,-1.086293 0.41947,0.224515 0.739613,0.163723 1.45076,-0.27598 1.905805,-1.177836 1.905837,-1.177771 -2.302663,-3.286025 -4.015024,-2.011373 -3.967869,-1.964701 -3.395098,-3.360457 0.183342,-0.446425 0.07591,-0.492905 -0.991341,-0.429056 -0.658266,0.03956 -1.361533,0.197175 -1.562856,0.350605 -0.459999,0.350538 -3.727048,6.841533 -4.544983,9.029944 -0.629704,1.684796 -0.657849,1.709885 -3.139577,2.800038 -2.7934114,1.227048 -4.3454604,3.510477 -4.3503496,6.400448 -0.00206,1.2064 0.1228722,1.693063 0.5425352,2.112694 0.664346,0.664314 1.0630371,0.679464 2.3044954,0.08749 0.527965,-0.251856 1.01048,-0.405124 1.072206,-0.340761 0.06176,0.06433 -0.05114,0.975708 -0.250891,2.025267 -1.43278,7.52904 -1.168637,17.024484 0.720474,25.897655 0.771586,3.624245 0.787218,3.647083 1.841474,2.689485 l 0.860137,-0.781236 -0.322973,-1.701521 c -0.177554,-0.935856 -0.261184,-1.763377 -0.185595,-1.838934 0.07559,-0.07559 0.702269,-0.214865 1.392637,-0.309432 1.251076,-0.171442 1.256673,-0.168547 1.690167,0.868887 0.823051,1.969814 0.803429,2.108576 -0.393544,2.78611 -1.573697,0.890726 -2.52155,2.436953 -2.52155,4.113322 0,2.970769 2.64262,4.854473 4.211459,3.001967 z m -1.961451,-1.997059 c -0.334907,-0.88082 0.142494,-2.424023 0.550449,-1.779138 0.33822,0.534784 0.330113,2.096805 -0.01287,2.30826 -0.150213,0.09296 -0.392515,-0.145387 -0.538482,-0.529122 z M 10.578113,59.653414 c 0.09199,-0.566787 0.386855,-1.273238 0.655307,-1.569836 0.56695,-0.62652 1.975734,-1.40515 2.177379,-1.203504 0.261183,0.261184 -0.23706,2.354739 -0.689596,2.899268 -0.249282,0.299782 -0.871073,0.626036 -1.381765,0.724882 l -0.928553,0.179804 z m 11.912648,-8.412078 c 0,-1.262881 -0.636072,-2.12289 -1.840122,-2.488033 -0.696415,-0.211327 -0.776669,-0.639546 -0.253786,-1.354617 0.344781,-0.471482 0.405317,-0.468394 1.470927,0.07527 1.637063,0.835177 1.986026,1.289965 1.986026,2.58826 0,1.113152 -0.5839,2.358342 -1.105882,2.358342 -0.141528,0 -0.257001,-0.530634 -0.257001,-1.179188 z m 40.2387,48.999454 c -0.09103,-0.23706 -0.165331,-0.855315 -0.165331,-1.373662 v -0.942449 l -2.385327,0.0788 -2.385296,0.0788 -0.08298,1.294887 -0.08298,1.294884 h 2.63387 c 2.289733,0 2.612256,-0.0563 2.46838,-0.43121 z m 11.011403,-0.643151 c 0,-1.053452 0.519312,-1.886924 0.572095,-0.918132 0.110007,2.019483 -0.07398,1.848743 2.085835,1.936273 l 1.976409,0.08 v -0.801121 c 0,-0.737102 -0.08813,-0.809538 -1.10289,-0.906324 -1.142647,-0.109041 -1.759484,0.09554 -1.759484,0.583193 0,0.525132 -0.54453,0.308468 -0.632277,-0.251535 -0.113222,-0.723337 0.985229,-1.155449 2.660181,-1.046343 l 1.243357,0.08106 0.08395,1.158568 c 0.06851,0.948332 0.182701,1.158602 0.628321,1.158602 0.479459,0 0.534558,-0.15472 0.461382,-1.294886 l -0.08298,-1.294887 h -5.432236 -5.432236 l -0.07527,1.294887 -0.07527,1.294886 h 2.440653 2.44062 z M 85.61678,99.376983 85.514815,98.082098 h -2.41119 -2.411221 l -0.08298,1.294885 -0.08298,1.294887 h 2.596333 2.596333 z m 11.197898,0.883907 c 0.08685,-0.22612 0.0772,-0.83939 -0.02252,-1.363044 L 96.613641,97.94578 h -2.304786 -2.304818 v 0.931835 c 0,0.512492 -0.0743,1.125855 -0.16533,1.363045 -0.143458,0.3738 0.165974,0.43121 2.325725,0.43121 1.968432,0 2.524251,-0.0862 2.64886,-0.41098 z m -33.86408,-3.025774 c 1.082819,-0.415514 0.20007,-0.65238 -2.431163,-0.65238 -2.621069,0 -3.183321,0.133486 -2.68064,0.636105 0.227089,0.227088 4.526456,0.240919 5.111803,0.01608 z m 11.880708,-0.164044 c -3.963881,-0.853575 -6.651114,-1.937102 -9.064812,-3.655157 -0.71253,-0.507185 -1.356579,-0.922153 -1.431203,-0.922153 -0.07462,0 -0.135739,0.790436 -0.135739,1.756493 v 1.756494 l 1.348474,-0.03217 c 1.073105,-0.02573 1.532395,0.115153 2.24901,0.684192 0.874773,0.69442 1.005912,0.714299 4.580751,0.694935 3.069714,-0.01608 3.476704,-0.06368 2.453455,-0.284021 z m 11.857871,-0.369967 c 0.946598,-0.721986 2.268857,-0.947757 3.339967,-0.570263 0.598632,0.211006 0.613364,0.169835 0.613364,-1.710463 0,-1.059627 -0.06112,-1.926617 -0.135738,-1.926617 -0.07462,0 -0.735561,0.430986 -1.468773,0.95776 -2.653299,1.906224 -5.606573,3.002552 -9.845051,3.654739 -1.21965,0.187525 -0.745853,0.236738 2.539819,0.262471 3.939467,0.03217 4.061761,0.01608 4.956348,-0.667724 z m 9.883199,0.222585 c 0.08524,-0.257646 -0.558361,-0.340761 -2.635865,-0.340761 -2.531714,0 -3.067815,0.135417 -2.557542,0.645593 0.34491,0.34491 5.07002,0.06755 5.193407,-0.304929 z M 83.800394,95.62504 c 4.611309,-1.564915 8.712215,-5.026725 11.178149,-9.436098 1.277582,-2.284425 2.207422,-6.283689 2.2025,-9.473121 -0.0064,-3.384452 -0.526967,-5.555012 -2.104974,-8.756603 -1.049624,-2.129613 -1.690103,-3.00638 -3.604657,-4.934411 -2.544933,-2.56285 -4.538196,-3.81682 -7.996339,-5.030585 -1.168315,-0.410077 -2.240165,-0.962198 -2.381887,-1.226985 -0.486341,-0.908739 -2.121152,-1.683476 -3.55242,-1.683476 -1.158054,0 -1.528375,0.146352 -2.606819,1.030035 -0.759685,0.622498 -2.21572,1.377164 -3.68015,1.907413 -3.086761,1.117686 -5.061432,2.297291 -7.267083,4.341021 -2.949094,2.732651 -4.967446,6.194526 -5.926492,10.165129 -0.611112,2.530202 -0.434233,7.553807 0.352727,10.016333 1.836103,5.745623 6.061489,10.457482 11.278924,12.577508 3.147393,1.2789 4.231499,1.461182 8.138093,1.368449 3.188532,-0.07559 3.986172,-0.191064 5.970428,-0.864609 z M 74.036143,94.651263 C 70.4559,93.948672 66.554774,91.660001 63.858148,88.680127 57.688647,81.862619 57.765716,71.005482 64.03152,64.237704 c 0.97619,-1.054385 2.431228,-2.369085 3.233435,-2.921559 1.400421,-0.964515 5.064488,-2.625573 5.79162,-2.625573 0.206181,0 0.426354,0.51111 0.536617,1.246381 0.142173,0.948045 0.443176,1.502675 1.257671,2.317137 0.58895,0.58895 1.070789,1.242842 1.070789,1.45314 0,0.23513 -0.709699,0.597924 -1.843822,0.942416 -3.379853,1.026595 -6.217652,3.517714 -7.807174,6.853436 -0.798734,1.676208 -0.844376,1.948746 -0.844376,5.043227 0,3.111625 0.04246,3.360778 0.868242,5.104115 2.105907,4.445463 6.514572,7.310186 11.223343,7.292848 5.877791,-0.02252 10.460215,-3.509383 12.144431,-9.243298 1.844499,-6.279636 -2.119995,-13.187303 -8.697418,-15.154254 -0.628899,-0.188168 -1.128815,-0.521049 -1.181116,-0.786671 -0.04985,-0.253464 0.410141,-1.003949 1.022283,-1.668038 0.738745,-0.801435 1.114374,-1.461503 1.11714,-1.963156 0.0064,-1.315247 0.292384,-1.50081 1.598624,-1.039974 5.65363,1.994742 9.797639,6.277608 11.74883,12.142599 0.847817,2.548407 1.028265,6.415277 0.425774,9.123353 -1.153873,5.186556 -5.111804,10.422036 -9.459805,12.513339 -3.878611,1.865533 -8.409409,2.528078 -12.200561,1.784091 z m 0.821153,-3.520449 c 0.146996,0 0.231914,0.337353 0.188811,0.74965 -0.0698,0.665472 0.0032,0.741253 0.649872,0.674542 0.509212,-0.05243 0.766246,0.07044 0.854347,0.40892 0.06915,0.26633 0.140241,0.02252 0.157611,-0.538225 0.02895,-0.947113 0.09167,-1.022284 0.849458,-1.022284 0.449802,0 0.817808,0.12255 0.817808,0.272442 0,0.149891 -0.245423,0.272763 -0.545205,0.272763 -0.302999,0 -0.545237,0.181735 -0.545237,0.40892 0,0.366236 0.172728,0.458776 0.71922,0.385632 0.09585,-0.01287 0.265366,0.12448 0.377141,0.305572 0.116117,0.187847 0.24896,-0.153108 0.310397,-0.794552 l 0.10711,-1.123251 h -1.394791 c -1.963092,0 -5.470995,-0.952452 -7.002298,-1.901269 -0.712175,-0.441247 -1.294885,-0.684674 -1.294885,-0.54096 0,0.143781 0.12255,0.261184 0.272441,0.261184 0.149891,0 0.272763,0.183987 0.272763,0.40892 0,0.224837 -0.111293,0.40892 -0.24703,0.40892 -0.136061,0 -0.183344,0.244136 -0.105182,0.54215 0.07784,0.298173 0.256038,0.471609 0.395346,0.385438 0.372927,-0.230626 1.047501,0.422526 1.047501,1.014049 0,0.281448 0.09521,0.511817 0.211649,0.511817 0.116439,0 0.1634,-0.505673 0.104538,-1.123733 -0.08331,-0.8722 -0.02252,-1.088576 0.265365,-0.966637 0.204894,0.08653 0.898929,0.312326 1.542303,0.501749 0.933442,0.275015 1.153712,0.456525 1.09041,0.898479 -0.04375,0.304607 -0.201999,0.51513 -0.35189,0.467815 -0.149891,-0.04729 -0.236417,-0.261828 -0.19235,-0.477079 0.04407,-0.215187 -0.07848,-0.392676 -0.272764,-0.394734 -0.193957,-0.0022 -0.628738,-0.07784 -0.96609,-0.168227 -0.510241,-0.136702 -0.612655,-0.05597 -0.609182,0.480778 0.0022,0.35485 0.128662,0.829162 0.280805,1.054063 0.205216,0.303321 0.231913,0.215509 0.102608,-0.340761 -0.244136,-1.051039 0.360672,-0.979342 1.533714,0.181735 l 0.941001,0.931448 0.08395,-1.067733 c 0.046,-0.587277 0.203929,-1.067734 0.351086,-1.067734 z m 2.921559,1.176807 c 0.196853,-0.0788 0.431918,-0.06915 0.522496,0.02252 0.09071,0.09071 -0.07044,0.155038 -0.357777,0.143136 -0.317473,-0.01287 -0.382157,-0.07784 -0.164687,-0.164687 z m -2.129741,-0.495316 c 0,-0.224837 0.183986,-0.408888 0.40892,-0.408888 0.224836,0 0.408919,0.183987 0.408919,0.408888 0,0.224836 -0.183986,0.40892 -0.408919,0.40892 -0.224837,0 -0.40892,-0.183987 -0.40892,-0.40892 z m -5.630665,-1.647387 c -0.08878,-0.23127 -0.09296,-0.48898 -0.0096,-0.572514 0.238669,-0.238668 0.733341,0.166295 0.733341,0.600369 0,0.523075 -0.520019,0.503068 -0.723756,-0.02895 z m 11.411639,1.978273 c -0.121265,-0.707995 0.704939,-0.564505 0.841835,0.146353 0.06497,0.337351 0.134773,0.0891 0.155359,-0.55196 0.03217,-0.983524 0.146354,-1.206816 0.736364,-1.431202 0.384603,-0.146354 0.761165,-0.266009 0.836785,-0.266009 0.291742,0 -0.055,1.190026 -0.377654,1.296301 -0.230305,0.07591 -0.280162,-0.05018 -0.153429,-0.387562 0.167581,-0.446521 0.136702,-0.458423 -0.289812,-0.111292 -0.427093,0.347676 -0.432207,0.413583 -0.04889,0.628126 0.235452,0.131879 0.563733,0.156003 0.729224,0.05372 0.165652,-0.102286 0.408019,-0.01608 0.538901,0.189777 0.156002,0.246387 0.239311,-0.04985 0.242206,-0.860427 0.0032,-1.082305 0.105824,-1.296205 0.82199,-1.719213 0.984391,-0.581487 1.105398,-0.158255 0.136381,0.476789 -0.800181,0.524297 -0.867697,1.039042 -0.204573,1.55919 0.432368,0.339088 0.442018,0.329438 0.10293,-0.10293 -0.300104,-0.382577 -0.306859,-0.558071 -0.03473,-0.885967 0.477304,-0.575118 0.76303,-0.508986 0.883296,0.204573 0.05694,0.337352 0.15729,-0.0862 0.22355,-0.941419 l 0.119977,-1.554783 -0.613363,0.396214 c -0.337352,0.21776 -0.932477,0.60246 -1.322516,0.854541 -0.390006,0.252177 -1.64742,0.805488 -2.794216,1.229783 -1.782675,0.659553 -1.912045,0.746882 -0.892013,0.602299 0.840227,-0.119013 1.137822,-0.07977 1.0062,0.133164 -0.102928,0.166296 -0.363662,0.302356 -0.579718,0.302356 -0.216152,0 -0.392837,0.245423 -0.392837,0.545206 0,0.299782 -0.12255,0.545204 -0.272441,0.545204 -0.149891,0 -0.272763,-0.12255 -0.272763,-0.272763 0,-0.149891 -0.137669,-0.272441 -0.305894,-0.272441 -0.207468,0 -0.193958,0.135094 0.0431,0.420595 0.448805,0.540766 1.241396,0.383188 1.136921,-0.226123 z M 70.018449,91.527962 c -0.08878,-0.23127 -0.220012,-0.362216 -0.291419,-0.290776 -0.07141,0.07141 -0.04921,0.260862 0.04985,0.42066 0.268903,0.434942 0.425903,0.350444 0.241562,-0.129949 z m 5.903267,-1.351272 c -0.18656,-0.224837 -0.477657,-0.405028 -0.646719,-0.400268 -0.169191,0.0032 -0.06915,0.188812 0.221942,0.40892 0.679785,0.514165 0.855891,0.510596 0.424938,-0.0096 z m 10.086486,-2.635222 c 0,-0.124802 -0.183987,-0.227088 -0.40892,-0.227088 -0.224837,0 -0.40892,0.102286 -0.40892,0.227088 0,0.124802 0.183987,0.227088 0.40892,0.227088 0.224836,0 0.40892,-0.102286 0.40892,-0.227088 z M 66.195935,87.003662 c 0.215187,-0.343303 0.07526,-0.766246 -0.603682,-1.824073 -0.667079,-1.039589 -0.821474,-1.498044 -0.6298,-1.87023 0.364661,-0.708091 0.110006,-1.174587 -0.641379,-1.174587 -0.570745,0 -0.725526,-0.243493 -1.255902,-1.976409 -0.776571,-2.537084 -0.781685,-4.942966 -0.01608,-7.444507 0.776797,-2.537311 1.6296,-3.796686 2.582116,-3.813058 0.975837,-0.01608 1.168509,-0.266009 0.811311,-1.050139 -0.269547,-0.591523 -0.151178,-0.819158 1.201284,-2.313856 1.532685,-1.693673 1.653145,-2.211924 0.514134,-2.211924 -0.436583,0 -1.074263,0.483158 -1.982166,1.501774 -1.220648,1.369542 -1.414253,1.486657 -2.198447,1.329818 -1.036437,-0.207146 -1.405471,0.378781 -0.790949,1.256159 0.362665,0.517767 0.315221,0.736525 -0.526903,2.424473 -1.763956,3.536177 -2.086221,7.102364 -0.996583,11.028998 0.412811,1.487717 0.411107,1.646422 -0.02573,2.385875 -0.567849,0.961265 -0.385406,1.336251 0.650065,1.336251 0.662769,0 0.913564,0.230626 1.648255,1.514544 0.907357,1.585887 1.646391,1.88049 2.260205,0.900891 z m 24.943369,-0.916106 c 0.75026,-1.254293 1.023216,-1.499329 1.670192,-1.499329 0.900666,0 1.257446,-0.625748 0.683806,-1.199355 -0.505255,-0.505288 -0.496924,-1.058277 0.04149,-2.75343 0.681361,-2.144987 0.608571,-6.395045 -0.146997,-8.587123 -0.335935,-0.974582 -0.845726,-2.154444 -1.132836,-2.621969 -0.590655,-0.961749 -0.667401,-1.75794 -0.213256,-2.212117 0.169833,-0.169834 0.229339,-0.516031 0.132199,-0.76927 -0.135738,-0.353885 -0.375757,-0.42066 -1.036629,-0.288524 -0.784227,0.156968 -0.977799,0.03956 -2.198478,-1.329817 -0.907871,-1.018617 -1.545584,-1.501775 -1.982134,-1.501775 -1.144705,0 -1.024503,0.534365 0.514518,2.287352 1.049818,1.195784 1.422584,1.805898 1.22438,2.004102 -0.553986,0.553954 -0.138633,1.29701 0.725171,1.29701 0.741833,0 0.907324,0.187524 1.892167,2.144762 0.976415,1.940479 1.089734,2.384717 1.189382,4.663094 0.08042,1.837839 -0.01608,2.95247 -0.355331,4.125159 -0.535073,1.847136 -0.828486,2.288414 -1.521653,2.288414 -0.681876,0 -0.883779,0.425485 -0.5224,1.100799 0.252178,0.471032 0.162115,0.786993 -0.532596,1.869587 -0.928103,1.446321 -0.983331,1.680131 -0.508858,2.154637 0.629929,0.629897 1.188515,0.3149 2.077955,-1.172239 z m -17.899418,0.749681 c -0.275658,-0.26247 -0.729255,-0.609117 -1.008226,-0.770524 -0.622402,-0.360061 -1.000412,-1.629021 -0.786414,-2.639821 0.260219,-1.228883 0.972202,-2.443966 1.515412,-2.586009 0.530055,-0.138633 0.654503,-0.803076 0.548969,-2.93153 -0.04567,-0.922185 -0.0064,-1.011604 0.257324,-0.579622 0.183986,0.301712 0.245101,0.994557 0.149569,1.691936 -0.092,0.671777 -0.04536,1.253136 0.108397,1.34812 0.402519,0.24864 0.03442,0.674543 -0.58332,0.674543 -0.446072,0 -0.479041,0.0653 -0.189776,0.37476 0.192671,0.20618 0.473379,0.325579 0.624106,0.265365 0.383895,-0.153108 1.49592,-3.12893 1.524194,-4.078937 l 0.02252,-0.786704 0.255072,0.817808 c 0.140242,0.449802 0.228053,1.420395 0.194601,2.156889 -0.04889,1.080213 0.02895,1.352204 0.402938,1.407047 0.535425,0.07848 0.628319,-0.316509 0.12255,-0.521789 -0.268583,-0.109041 -0.265366,-0.191384 0.01608,-0.388881 0.240277,-0.16919 0.318438,-0.685414 0.240599,-1.588234 -0.06337,-0.73569 -0.05629,-0.969629 0.01608,-0.519827 0.11676,0.728516 0.156325,0.758269 0.362762,0.272763 0.165331,-0.389299 0.222907,-0.155359 0.201035,0.817839 -0.04503,2.008414 0.01287,2.317171 0.425388,2.317171 0.478558,0 0.736429,-1.276166 0.531277,-2.629433 -0.133164,-0.87786 -0.09843,-0.993495 0.210684,-0.70259 0.203608,0.191384 0.370064,0.843925 0.370064,1.449795 0,0.605869 0.05018,0.951262 0.111292,0.767532 0.06112,-0.183664 0.280484,0.02252 0.487372,0.458487 0.206824,0.435874 0.317152,0.579301 0.245423,0.31876 -0.289811,-1.051103 -0.431822,-3.3455 -0.173372,-2.797561 0.215187,0.456332 0.26054,0.382191 0.276302,-0.454756 0.0096,-0.549997 -0.05243,-1.186263 -0.139599,-1.413962 -0.201034,-0.524169 -0.930193,-0.266652 -0.935758,0.330403 -0.0032,0.388785 -0.03892,0.393932 -0.26826,0.03892 -0.145389,-0.224836 -0.266009,-0.269868 -0.268261,-0.100034 -0.0022,0.169833 -0.252499,0.373891 -0.555851,0.453244 -0.406217,0.106145 -0.532017,0.02573 -0.477079,-0.309111 0.05854,-0.355267 -0.146353,-0.453244 -0.947691,-0.453244 -0.827232,0 -1.022316,-0.100035 -1.022284,-0.524555 6.5e-5,-0.48261 -0.05629,-0.471706 -0.705614,0.136382 l -0.705678,0.660905 -0.65624,-0.81784 c -0.807097,-1.005847 -1.101122,-2.408616 -0.692717,-3.304972 0.391551,-0.859397 0.385729,-0.933603 -0.05983,-0.762611 -0.20811,0.07977 -0.684545,-0.27598 -1.101795,-0.823082 -0.635109,-0.832701 -0.690401,-1.047341 -0.406379,-1.57804 0.767564,-1.434194 2.462203,-2.6303 3.067976,-2.165444 0.847657,0.650515 1.250047,0.571805 1.472857,-0.288202 0.260863,-1.00604 1.094077,-1.330333 3.000172,-1.167383 1.254325,0.107112 1.682576,0.438351 1.690038,1.306659 0.0064,0.600497 0.749778,0.922378 1.167447,0.504709 0.488979,-0.48898 1.526348,-0.359804 1.898696,0.236415 0.187203,0.299783 0.485988,0.545206 0.663831,0.545206 0.177875,0 0.522754,0.398691 0.766472,0.885966 l 0.443047,0.885966 -1.036469,0.966025 c -0.922087,0.85943 -1.027333,1.090347 -0.95361,2.092752 0.05822,0.792461 -0.123837,1.534358 -0.613363,2.500673 -0.38293,0.755664 -0.705904,1.776692 -0.717741,2.268954 -0.01287,0.49226 -0.08427,0.711017 -0.160828,0.486116 -0.332365,-0.97619 -0.943542,-2.170526 -1.188064,-2.321673 -0.385825,-0.238345 -0.324132,2.541911 0.0817,3.684717 0.455656,1.282985 0.73051,1.675726 1.039234,1.484953 0.142171,-0.08781 0.175302,-0.293993 0.07366,-0.458198 -0.101643,-0.164365 -0.213257,-0.663445 -0.248317,-1.109355 -0.04375,-0.554533 0.01287,-0.691108 0.175945,-0.43224 0.131879,0.20811 0.241562,0.578914 0.243814,0.823791 0.0022,0.244779 0.234487,0.50548 0.515806,0.579075 0.290133,0.07591 0.802368,0.768273 1.183207,1.599267 0.785031,1.713005 0.667273,2.237914 -0.862903,3.84622 l -0.968246,1.017684 -3.884625,0.0032 c -3.331122,0.0032 -3.956033,-0.06337 -4.385635,-0.472479 z m 7.316169,-1.583185 c 0,-0.657977 -0.479362,-0.670618 -0.903174,-0.02252 -0.401393,0.612624 -0.391969,0.632438 0.242849,0.51111 0.363212,-0.06948 0.66039,-0.288847 0.66039,-0.487275 z m -6.242742,-0.02252 c -0.827618,-0.360865 -0.972587,-0.358484 -1.353298,0.02252 -0.38679,0.386789 -0.300747,0.424327 0.926913,0.40416 l 1.353298,-0.02252 z M 78.796506,85.0112 c 0.779724,-0.779724 0.826943,-1.165099 0.244779,-1.996287 -0.803139,-1.146635 -2.846934,-0.489076 -2.846934,0.915912 0,0.579462 1.126789,1.749481 1.684796,1.749481 0.136703,0 0.549354,-0.301069 0.917359,-0.669106 z m -1.736871,-0.881849 c -0.178518,-0.336387 -0.158898,-0.588918 0.06208,-0.79288 0.470742,-0.434877 1.498783,0.0193 1.411711,0.623239 -0.09681,0.67213 -1.143032,0.792557 -1.473694,0.169512 z m 5.130844,1.008001 c 0.183022,-0.341822 0.204251,-0.871973 0.0579,-1.43117 -0.209398,-0.799345 -0.333139,-0.888251 -1.235284,-0.888251 -0.55138,0 -1.002405,-0.112578 -1.002308,-0.249925 9.7e-5,-0.137346 -0.08073,-0.168869 -0.179805,-0.0698 -0.09907,0.09907 0.01608,0.395475 0.253142,0.658782 0.238346,0.263434 0.443466,0.601398 0.455946,0.751353 0.05211,0.626583 0.343623,1.226727 0.595833,1.226727 0.148605,0 0.199748,-0.114188 0.113545,-0.253786 -0.0862,-0.139598 -0.01287,-0.34253 0.162435,-0.451025 0.199426,-0.123193 0.246066,-0.07913 0.124802,0.117405 -0.108076,0.17498 -0.03602,0.324292 0.162436,0.336258 0.274372,0.01608 0.278232,0.05339 0.01608,0.158897 -0.400815,0.161792 -0.458808,0.637263 -0.07784,0.637263 0.144744,0 0.39377,-0.244457 0.5536,-0.542954 z m -0.706385,-1.531945 c 0.119334,-0.311362 0.05114,-0.394188 -0.234809,-0.284664 -0.221941,0.08524 -0.465337,0.05436 -0.541184,-0.06851 -0.07591,-0.122872 0.133166,-0.209397 0.464696,-0.192671 0.612944,0.03217 1.062682,0.984714 0.464405,0.984714 -0.183987,0 -0.249604,-0.188168 -0.153108,-0.439252 z m -8.83364,1.40946 c 0,-0.06626 -0.12255,-0.195889 -0.272441,-0.288847 -0.149892,-0.09263 -0.272764,-0.0386 -0.272764,0.120299 0,0.158898 0.122551,0.288525 0.272764,0.288525 0.149891,0 0.272441,-0.05403 0.272441,-0.120299 z m 2.936194,-0.373892 c 0.0595,-0.178197 -0.03217,-0.323713 -0.203608,-0.323713 -0.17112,0 -0.223871,0.141527 -0.11676,0.314578 0.12062,0.194923 0.07462,0.240598 -0.120299,0.120299 -0.17305,-0.107111 -0.314579,-0.371287 -0.314579,-0.587342 0,-0.216152 -0.225801,-0.392805 -0.501459,-0.392805 -0.275659,0 -0.644339,-0.313613 -0.818966,-0.696897 -0.429151,-0.941902 -0.791302,-0.638678 -0.716132,0.599596 0.05629,0.928199 0.131879,1.015465 0.910058,1.051844 0.466721,0.02252 0.934118,0.125123 1.038656,0.229661 0.254751,0.254751 0.709828,0.0846 0.843186,-0.315543 z m 7.695464,-0.460031 c 0,-0.524747 -0.122551,-0.954125 -0.272442,-0.954125 -0.302356,0 -0.378041,1.439342 -0.09103,1.726515 0.313614,0.313935 0.363502,0.208111 0.363502,-0.77239 z m -10.84974,-0.736008 c -0.254429,-0.254428 -0.327155,-0.181734 -0.327155,0.327123 0,0.508858 0.07269,0.581552 0.327155,0.327123 0.254429,-0.254428 0.254429,-0.399817 0,-0.654246 z m 2.807854,0.327123 c -0.09263,-0.149891 -0.0386,-0.272763 0.120299,-0.272763 0.158898,0 0.288846,-0.245423 0.288846,-0.545237 0,-0.441343 -0.181735,-0.545205 -0.954124,-0.545205 -1.178158,0 -1.284304,0.614167 -0.204573,1.18295 0.957856,0.504515 0.948849,0.50236 0.749648,0.180127 z m 3.952784,-2.453486 c 0,-0.149891 -0.12255,-0.272764 -0.272763,-0.272764 -0.149891,0 -0.272441,0.122551 -0.272441,0.272764 0,0.149891 0.12255,0.272763 0.272441,0.272763 0.149891,0 0.272763,-0.122551 0.272763,-0.272763 z m 0.734146,-1.562278 c -0.06915,-0.265365 -0.130271,-0.114187 -0.135739,0.33555 -0.0064,0.449802 0.05114,0.666824 0.125767,0.482257 0.07462,-0.184629 0.07913,-0.55257 0.0096,-0.817807 z m -4.278042,0.33555 c 0,-0.224836 -0.04825,-0.408887 -0.107111,-0.408887 -0.05886,0 -0.177875,0.183987 -0.264079,0.408887 -0.0862,0.224837 -0.03795,0.40892 0.107111,0.40892 0.145388,0 0.264079,-0.183986 0.264079,-0.40892 z m 3.365378,-4.646079 c -0.08878,-0.23127 -0.220012,-0.362183 -0.291419,-0.290775 -0.07141,0.07141 -0.04889,0.260861 0.04985,0.420692 0.268903,0.43491 0.425904,0.350443 0.241563,-0.129949 z m -1.64877,-1.12457 c -0.115153,-0.300425 -0.0476,-0.393769 0.216473,-0.297852 0.211328,0.07655 0.359224,0.260541 0.328668,0.408309 -0.04696,0.22741 0.423457,0.2644 1.350435,0.10679 0.112579,-0.0193 0.190098,-0.126732 0.172085,-0.239312 -0.01608,-0.112579 -0.0025,-0.296565 0.03409,-0.40892 0.180769,-0.556816 0.113222,-0.921508 -0.238025,-1.284528 -0.619475,-0.640319 -0.926623,-0.548615 -2.080881,0.621308 -0.599759,0.607831 -0.818291,0.882879 -0.485667,0.611177 0.603134,-0.492614 0.604486,-0.491618 0.49641,0.362473 -0.0595,0.471031 2.25e-4,0.789308 0.132843,0.707254 0.132843,-0.08202 0.165974,-0.346004 0.07366,-0.586537 z m 0.702107,-0.277909 c -0.325353,-0.399945 -0.315543,-0.437965 0.07591,-0.291419 0.472543,0.17691 0.547875,-0.404803 0.104538,-0.808158 -0.128341,-0.116761 -0.145066,-0.05886 -0.03731,0.128341 0.129948,0.225801 0.0064,0.340761 -0.365207,0.340761 -0.760585,0 -0.705646,-0.183987 0.193958,-0.6491 0.710664,-0.367491 0.773387,-0.351859 1.064935,0.266008 0.170477,0.361058 0.198461,0.587728 0.06272,0.503712 -0.136059,-0.08395 -0.247031,0.09971 -0.247031,0.408566 0,0.680783 -0.347644,0.722115 -0.85261,0.101321 z m 3.111496,0.27019 c -0.10904,-0.284664 -0.0624,-0.378073 0.129306,-0.259575 0.165009,0.101964 0.388881,0.04182 0.497375,-0.133809 0.123194,-0.199426 0.07913,-0.246066 -0.117404,-0.124481 -0.174981,0.108077 -0.324292,0.03602 -0.336258,-0.162435 -0.01608,-0.254107 -0.0595,-0.263435 -0.154073,-0.03217 -0.07269,0.17884 -0.27791,0.291097 -0.455527,0.24896 -0.177875,-0.04182 -0.230305,-0.02573 -0.117083,0.0386 0.113223,0.06337 0.136704,0.227089 0.05211,0.364242 -0.207146,0.335003 0.12641,0.84177 0.430214,0.653924 0.133164,-0.08235 0.165008,-0.349671 0.07108,-0.594353 z m -7.302562,-0.534944 c 0.05211,-0.27598 0.104538,-0.655372 0.115796,-0.842801 0.01287,-0.187524 0.139599,-0.34076 0.284986,-0.34076 0.145066,0 0.193315,0.183986 0.107112,0.40892 -0.0862,0.224836 -0.08814,0.408887 -0.0032,0.408887 0.08395,0 0.267616,-0.398691 0.408533,-0.885965 0.140563,-0.487275 0.337417,-1.084524 0.43713,-1.327213 0.12255,-0.298496 0.01608,-0.484798 -0.333911,-0.575955 -0.622531,-0.162758 -0.692426,-1.025629 -0.08363,-1.031516 0.378233,-0.0032 0.381032,-0.03699 0.02252,-0.268581 -0.565244,-0.365272 -0.719671,-0.338027 -0.77239,0.136382 -0.02573,0.224837 -0.06594,0.592906 -0.09103,0.817807 -0.02573,0.224837 -0.146996,0.408919 -0.270833,0.408919 -0.123837,0 -0.174015,-0.275979 -0.110972,-0.613363 0.06305,-0.337352 0.123516,-0.816553 0.134453,-1.064902 0.01287,-0.315223 0.186237,-0.408148 0.569521,-0.307824 0.42719,0.111614 0.510595,0.04278 0.375243,-0.309754 -0.09585,-0.249604 -0.239633,-0.387948 -0.319725,-0.307823 -0.08009,0.08009 -0.304286,0.01287 -0.498469,-0.146996 -0.194279,-0.161471 -0.626294,-0.20586 -0.962005,-0.09939 -0.595158,0.188811 -0.597056,0.20232 -0.0817,0.579011 0.365046,0.266974 0.537099,0.738809 0.558907,1.532943 0.04664,1.695636 0.05436,1.718377 0.719414,2.068208 0.337351,0.177554 0.39869,0.261505 0.136381,0.186559 -0.477143,-0.136059 -0.539062,-0.0064 -0.547392,1.141618 -0.0025,0.337352 -0.117404,0.613363 -0.255716,0.613363 -0.138311,0 -0.170477,0.130914 -0.07173,0.290777 0.220978,0.357326 0.408276,0.192028 0.533593,-0.470228 z m 0.06047,-2.386712 c -0.419277,-0.318116 -0.428541,-0.389716 -0.06819,-0.527996 0.605323,-0.232235 1.224445,0.07784 1.052069,0.526967 -0.181735,0.473959 -0.360253,0.474152 -0.98391,0.0011 z m 0.621373,-0.159862 c 0,-0.149891 -0.129949,-0.272441 -0.288847,-0.272441 -0.158897,0 -0.212935,0.12255 -0.120298,0.272441 0.09263,0.149892 0.222585,0.272764 0.288845,0.272764 0.06626,0 0.1203,-0.122551 0.1203,-0.272764 z m -1.658968,2.408037 c -0.03795,-0.04985 0.07977,-0.368519 0.261506,-0.707833 0.225802,-0.42214 0.245101,-0.766504 0.06112,-1.090443 -0.245423,-0.431564 -0.269547,-0.425228 -0.272442,0.07173 -0.0019,0.299782 -0.06047,0.893396 -0.129949,1.318945 -0.06948,0.425581 -0.06465,0.711822 0.01287,0.636105 0.07559,-0.07559 0.10679,-0.178518 0.06883,-0.228697 z m 9.746335,-0.0788 c 0,-0.218404 -0.104216,-0.332495 -0.231591,-0.253786 -0.127376,0.0788 -0.161149,0.257324 -0.07462,0.396922 0.220333,0.356683 0.306537,0.316509 0.306537,-0.143136 z M 76.42781,72.83776 c -0.575216,-0.364467 -0.838265,-0.2837 -0.44874,0.137668 0.193314,0.209075 0.456588,0.316508 0.585058,0.238668 0.12834,-0.07784 0.06723,-0.247353 -0.136382,-0.376143 z m 5.221552,-0.648071 C 81.486604,71.99348 81.300367,71.55841 81.235746,71.222956 81.088428,70.458029 80.93339,70.296622 80.703503,70.668681 c -0.09874,0.159861 -0.05372,0.290775 0.100357,0.290775 0.154073,0 0.213257,0.174337 0.131557,0.387627 -0.194601,0.507089 0.386854,1.584696 0.737973,1.367676 0.178197,-0.110007 0.169833,-0.291419 -0.02252,-0.525037 z m -4.228378,0.132844 c 0.09263,-0.149891 0.0386,-0.272441 -0.120299,-0.272441 -0.158898,0 -0.288847,0.12255 -0.288847,0.272441 0,0.149891 0.05404,0.272763 0.1203,0.272763 0.06594,0 0.195888,-0.12255 0.288524,-0.272763 z m 2.589772,-0.107111 c 0,-0.05886 -0.190421,-0.180127 -0.423073,-0.269547 -0.242528,-0.09296 -0.352019,-0.04729 -0.256359,0.107112 0.160184,0.258931 0.679592,0.383122 0.679592,0.162435 z m 0.426225,-0.880433 c -0.151178,-0.83357 -0.426225,-1.207558 -0.426225,-0.579494 0,0.491939 0.275015,1.294468 0.443433,1.294468 0.06176,0 0.05403,-0.321751 -0.01608,-0.714974 z m -2.87968,0.169833 c 0,-0.149891 -0.168869,-0.272763 -0.375532,-0.272763 -0.206502,0 -0.528253,-0.183987 -0.71491,-0.40892 -0.437676,-0.527353 -0.846531,-0.52835 -0.644372,-0.0016 0.08589,0.223871 0.26601,0.339474 0.400333,0.256359 0.134129,-0.08298 0.244135,-0.02895 0.244135,0.117725 0,0.147961 0.214544,0.324807 0.477079,0.393384 0.26247,0.06851 0.507732,0.138955 0.545205,0.156324 0.03764,0.01608 0.06819,-0.09103 0.06819,-0.240919 z m 1.363044,-0.16533 c 0,-0.05886 -0.252499,-0.107111 -0.561319,-0.107111 -0.308789,0 -0.488787,0.117403 -0.400171,0.260861 0.145388,0.235452 0.96149,0.105181 0.96149,-0.153428 z m 4.471936,-0.0011 c 0.124159,-0.323906 0.05243,-0.394703 -0.273728,-0.269546 -0.317474,0.121907 -0.397727,0.05339 -0.284343,-0.242207 0.220011,-0.573093 -0.487533,-0.524652 -0.949976,0.06497 -0.328153,0.418408 -0.322491,0.436871 0.046,0.150212 0.340021,-0.264722 0.483382,-0.22548 0.751965,0.204572 0.402937,0.645208 0.493322,0.656916 0.710053,0.092 z M 72.837883,69.788115 c -0.168869,-1.259954 -0.286273,-1.408784 -0.917778,-1.166384 -0.41056,0.15761 -0.422269,0.221941 -0.07977,0.438415 0.343335,0.217117 0.337224,0.254429 -0.04246,0.257967 -0.244136,0.0022 -0.586505,0.176267 -0.761036,0.386597 -0.456009,0.54945 0.249283,0.756564 0.836914,0.245744 0.302677,-0.263113 0.508729,-0.295922 0.629447,-0.100678 0.09874,0.159863 0.03442,0.290455 -0.142494,0.290455 -0.236415,0 -0.242205,0.09618 -0.02252,0.360864 0.219369,0.264079 0.210041,0.461511 -0.03473,0.736526 -0.267618,0.300425 -0.2332,0.298817 0.17112,-0.0096 0.392033,-0.298174 0.473572,-0.621213 0.363663,-1.440564 z m 6.900268,0.592295 c 0,-0.149891 -0.12255,-0.196852 -0.272763,-0.104216 -0.149891,0.09263 -0.272442,0.291097 -0.272442,0.441086 0,0.149891 0.122551,0.196852 0.272442,0.104215 0.149891,-0.09263 0.272763,-0.291097 0.272763,-0.441085 z m -2.063994,-0.123515 c 0.236737,-0.236738 0.428379,-0.29335 0.428379,-0.126732 0,0.209076 0.18849,0.196853 0.613364,-0.03893 0.337351,-0.187202 0.736043,-0.345039 0.885966,-0.350346 0.384602,-0.01287 0.520374,-2.054216 0.136703,-2.054216 -0.167904,0 -0.22741,-0.125767 -0.132521,-0.279197 0.09489,-0.153751 0.07141,-0.257002 -0.05211,-0.229983 -0.123516,0.02573 -0.531407,-0.09585 -0.906231,-0.273407 -0.62044,-0.293992 -0.626583,-0.312327 -0.06851,-0.204572 0.33719,0.06497 0.681779,0.0064 0.765731,-0.128662 0.08524,-0.13799 -0.639707,-0.247031 -1.643914,-0.247031 -1.395821,0 -1.833947,0.09746 -1.964056,0.436421 -0.092,0.239955 0.0032,0.544819 0.212935,0.677341 0.304608,0.192993 0.285308,0.241884 -0.0965,0.245101 -0.927524,0.0096 -0.370804,0.71684 0.759395,0.966766 0.155359,0.03442 0.282413,-0.15922 0.282413,-0.430085 0,-0.270833 -0.112258,-0.423072 -0.249604,-0.338252 -0.137347,0.08491 -0.195245,-0.0096 -0.128984,-0.207467 0.203929,-0.611756 0.795678,-0.621406 0.954125,-0.01608 0.193636,0.740901 0.526388,0.733502 0.722405,-0.01608 0.127696,-0.487886 0.224837,-0.531631 0.560805,-0.252499 0.22355,0.185595 0.331176,0.533689 0.238989,0.773676 -0.12448,0.324807 -0.05082,0.391551 0.288846,0.261184 0.574251,-0.220333 0.57959,0.05565 0.01608,0.85943 -0.327541,0.467654 -0.60558,0.586055 -1.09041,0.464373 -0.359128,-0.09007 -0.650772,-0.04182 -0.650772,0.107754 0,0.178197 -0.239311,0.180127 -0.699277,0.0064 -0.891821,-0.339056 -1.560573,-0.341597 -1.352624,-0.0064 0.08845,0.143459 0.328603,0.196532 0.533304,0.118048 0.204573,-0.07849 0.538161,0.04471 0.740965,0.27405 0.458035,0.517992 0.386564,0.517253 0.894457,0.0096 z M 76.05858,66.869772 c -0.101643,-0.164365 0.236417,-0.273728 0.846564,-0.273728 1.132322,0 1.148693,0.109685 0.05565,0.371544 -0.40313,0.0965 -0.809058,0.05243 -0.902081,-0.0981 z m 6.024371,2.864144 c 0.03313,-0.226445 -0.06497,-0.411686 -0.218404,-0.411686 -0.15343,0 0.0096,-0.236738 0.364886,-0.525873 0.497117,-0.406154 0.570197,-0.60053 0.321011,-0.853994 -0.566402,-0.57647 -1.22499,-0.08073 -1.08372,0.815814 0.0698,0.441793 0.220012,0.954285 0.334039,1.138882 0.146031,0.236417 0.0669,0.28177 -0.268582,0.153108 -0.261827,-0.100356 -0.619218,-0.18463 -0.794391,-0.186881 -0.1827,-0.0025 -0.144101,-0.116761 0.09038,-0.268582 0.245745,-0.158897 0.279196,-0.266008 0.08427,-0.26826 -0.600659,-0.0064 -0.690271,0.57618 -0.111614,0.727487 0.314899,0.08235 0.572642,0.282735 0.572642,0.445073 0,0.429699 0.634238,-0.254429 0.709152,-0.765056 z m 1.681065,0.406154 c -0.187204,-0.299783 -0.576792,-0.545237 -0.865574,-0.545237 -0.288846,0 -0.445459,0.07977 -0.348159,0.17691 0.144423,0.144423 1.217399,0.78577 1.483762,0.886802 0.03891,0.01608 -0.08267,-0.218726 -0.269869,-0.518475 z m 0.608473,-0.272763 c 0,-0.149892 -0.129947,-0.272764 -0.288524,-0.272764 -0.158897,0 -0.212936,0.122551 -0.120298,0.272764 0.09263,0.149891 0.222585,0.272763 0.288845,0.272763 0.06626,0 0.120299,-0.122551 0.120299,-0.272763 z m -6.974087,-0.508633 c 0.08009,-0.129949 0.455495,-0.176911 0.833922,-0.104538 0.677051,0.129305 0.954511,-0.280484 0.415418,-0.613557 -0.149892,-0.09263 -0.272765,-0.03217 -0.272765,0.136382 0,0.167582 -0.12255,0.229019 -0.272119,0.136703 -0.14957,-0.09263 -0.54498,0.02252 -0.878472,0.256681 -0.333492,0.233521 -0.463633,0.42468 -0.289167,0.42468 0.174337,0 0.382801,-0.106146 0.463054,-0.236094 z M 75.767708,69.07819 c 0.08298,-0.13413 -0.02573,-0.312004 -0.242528,-0.395024 -0.26247,-0.100678 -0.34298,-0.0193 -0.241884,0.244136 0.175624,0.45794 0.275658,0.489045 0.484509,0.150856 z m 7.9056,0 c 0.08298,-0.13413 -0.0193,-0.309753 -0.229982,-0.390135 -0.399721,-0.153429 -0.706612,0.02252 -0.706612,0.407022 0,0.304286 0.746207,0.291098 0.936498,-0.01608 z m -2.572113,-0.437482 c 0,-0.224837 -0.115473,-0.408888 -0.256359,-0.408888 -0.343752,0 -0.589947,0.425679 -0.372154,0.643471 0.306859,0.30718 0.628675,0.186881 0.628675,-0.234487 z m -4.906908,-4.738329 c 0,-0.35305 0.29946,-0.441183 1.499329,-0.441183 1.244643,0 1.49933,0.08073 1.49933,0.47576 0,0.399141 -0.241563,0.470195 -1.49933,0.441214 -1.185555,-0.02573 -1.499329,-0.127054 -1.499329,-0.475791 z m 0.454337,-1.30444 C 76.548589,62.497905 76.46689,60.9777 76.46689,59.219502 c 0,-2.589998 0.07751,-3.226455 0.408919,-3.353605 0.348706,-0.133809 0.408888,0.300103 0.408888,2.947226 0,1.70728 0.07462,3.298185 0.16533,3.53534 0.166295,0.433334 -0.431596,0.619412 -0.801531,0.249604 z m 1.181278,-3.189787 c 0,-3.366117 0.174015,-4.083151 0.806002,-3.321633 0.218726,0.263436 0.294636,1.38035 0.235452,3.469531 -0.07591,2.676618 -0.149892,3.092839 -0.56428,3.172224 -0.433784,0.08298 -0.477045,-0.218082 -0.477045,-3.320122 z m -2.560598,2.395107 c -0.09103,-0.23706 -0.165331,-1.448895 -0.165331,-2.692702 0,-1.677655 0.105503,-2.34911 0.40892,-2.600837 0.359321,-0.298174 0.40892,0.02895 0.40892,2.692669 0,2.780353 -0.230627,3.699836 -0.652349,2.60087 z m 4.033069,-2.430295 c 0.03635,-3.854841 0.548067,-3.909265 0.649485,-0.06915 0.06208,2.349722 0.0027,2.930533 -0.29946,2.930533 -0.298496,0 -0.371286,-0.594901 -0.349992,-2.861505 z m -5.105949,0.640092 c -0.169833,-0.649582 0.06015,-2.140323 0.330147,-2.140323 0.09489,0 0.171442,0.61301 0.170477,1.362208 -0.0022,1.419431 -0.23706,1.784959 -0.500528,0.778115 z m 6.359567,-0.640961 c 0,-0.674704 0.12255,-1.22676 0.272763,-1.22676 0.149891,0 0.272441,0.552056 0.272441,1.22676 0,0.674703 -0.12255,1.226727 -0.272441,1.226727 -0.149891,0 -0.272763,-0.552024 -0.272763,-1.226727 z m 57.627069,36.699435 2.69676,-0.170156 0.36594,-1.226759 c 0.65759,-2.204526 0.7712,-2.064992 -4.27334,-5.24767 -2.55468,-1.61178 -4.81604,-2.930533 -5.02521,-2.930533 -0.48712,0 -0.91737,2.512735 -0.45657,2.666357 0.16952,0.05661 0.56692,0.312328 0.88317,0.568333 0.5299,0.429087 0.54936,0.561126 0.248,1.682287 -0.37608,1.399423 -0.61977,1.615671 -1.82745,1.62143 -0.81784,0.0032 -0.90302,0.09714 -1.29489,1.416696 -0.23062,0.77686 -0.41947,1.56974 -0.41947,1.761929 0,0.355107 1.62369,0.329793 9.10303,-0.14185 z m -3.37828,-3.282778 c 0,-0.520083 0.34263,-1.112701 0.64254,-1.111349 0.17145,8.36e-4 0.80227,0.303642 1.40203,0.673031 l 1.09041,0.671615 -1.56749,0.0096 c -0.86209,0.0032 -1.56749,-0.104217 -1.56749,-0.241884 z m -72.604119,1.990819 c 0.418569,-0.638806 0.425356,-0.787572 0.0653,-1.431172 -1.037659,-1.85495 -3.423115,-0.260218 -2.418554,1.616831 0.430374,0.804137 1.774184,0.698119 2.353226,-0.185595 z m 32.972194,0.0193 c 0.365529,-0.557845 0.393738,-0.824658 0.145067,-1.3707 -0.370225,-0.812532 -0.898061,-1.052969 -1.809437,-0.824241 -0.812212,0.203929 -1.160306,1.271953 -0.725493,2.226206 0.425324,0.933539 1.769359,0.915944 2.389992,-0.03217 z M 43.578292,93.463809 c 0.804748,-0.868339 2.086446,-3.500955 2.277445,-4.677826 l 0.150535,-0.927428 h -3.443283 c -2.934586,0 -3.443251,0.06272 -3.443251,0.424328 0,0.721279 1.917867,5.144354 2.386904,5.504865 0.677791,0.52092 1.392219,0.409209 2.071683,-0.323939 z m 68.019768,-0.357583 c 0.75998,-1.490645 1.94338,-4.465791 1.94338,-4.885777 0,-0.292706 -1.56247,-0.361894 -8.1782,-0.361894 h -8.178209 v 2.953243 c 0,1.624293 0.0817,3.035038 0.181736,3.134977 0.100034,0.100034 3.225613,0.181734 6.945913,0.181734 h 6.76421 z M 58.747341,91.006528 c 0,-0.626005 0.103573,-0.673643 1.629826,-0.74965 l 1.629825,-0.08106 -1.195559,-1.715803 c -1.302445,-1.869233 -1.884479,-2.991326 -2.641462,-5.092729 l -0.493418,-1.369703 -0.0096,4.838783 c -0.0096,4.660328 0.0096,4.838782 0.535394,4.838782 0.396987,0 0.545206,-0.181735 0.545206,-0.668527 z m 4.290297,0.207788 c -0.253464,-0.253464 -0.537388,-0.384313 -0.630925,-0.290776 -0.268261,0.26826 0.143458,0.751579 0.64051,0.751579 0.416157,0 0.415386,-0.0357 -0.0096,-0.460834 z m 29.240356,0.0193 c 0,-0.362216 -0.07398,-0.380839 -0.40892,-0.10293 -0.224837,0.18656 -0.408888,0.385664 -0.408888,0.442275 0,0.05661 0.183987,0.10293 0.408888,0.10293 0.224837,0 0.40892,-0.199104 0.40892,-0.442307 z m 4.361704,-3.570948 v -4.013287 l -0.913982,1.900561 c -0.502683,1.045314 -1.361373,2.484333 -1.90825,3.197797 -0.546845,0.713494 -0.994267,1.35111 -0.994267,1.416954 0,0.06594 0.644049,0.156645 1.431203,0.201999 1.246831,0.07173 1.442397,0.16147 1.518308,0.695771 0.04793,0.337352 0.262469,0.613364 0.477046,0.613364 0.320368,0 0.389942,-0.714396 0.389942,-4.013256 z m 46.615832,-0.761743 v -1.198936 l -2.79425,-0.855506 c -1.5368,-0.470549 -2.89023,-0.945987 -3.0076,-1.056572 -0.11741,-0.110649 1.10935,-0.4223 2.72606,-0.692748 1.61669,-0.270511 3.01715,-0.566949 3.11207,-0.658942 0.0949,-0.092 0.25378,-0.736332 0.35292,-1.431878 l 0.18044,-1.264651 -1.98856,-0.599693 c -3.74001,-1.127915 -4.03313,-1.229398 -4.03313,-1.396432 0,-0.092 1.29874,-0.368167 2.88611,-0.613718 1.58733,-0.245423 2.99808,-0.515677 3.13498,-0.600272 0.2972,-0.183665 0.33905,-3.122497 0.0444,-3.115421 -0.11257,0.0028 -2.65792,0.473702 -5.65658,1.046601 l -5.45215,1.041679 -0.1901,1.328113 c -0.10776,0.752029 -0.0772,1.46427 0.0704,1.642048 0.14346,0.172729 1.4249,0.657817 2.848,1.078059 1.4231,0.420241 2.58742,0.847656 2.58742,0.94975 0,0.102286 -1.25346,0.393834 -2.7855,0.648263 -1.53201,0.254429 -2.87955,0.610598 -2.99447,0.791464 -0.11483,0.18077 -0.21101,0.840066 -0.21326,1.464881 -0.003,1.30698 -0.66399,0.957759 6.53838,3.463804 2.32398,0.808608 4.31741,1.415956 4.42985,1.349631 0.11259,-0.06626 0.20458,-0.660131 0.20458,-1.319524 z M 28.595448,85.863684 c 0.22355,-0.08589 0.781525,-0.04857 1.239916,0.08298 1.024149,0.293671 1.044638,0.118369 0.101321,-0.866216 -0.722533,-0.754185 -0.726168,-0.776828 -0.276944,-1.718731 0.510948,-1.071464 0.336354,-1.168765 -0.862519,-0.480712 -0.819158,0.47013 -0.831992,0.467524 -1.681611,-0.340762 l -0.856149,-0.814526 0.05147,0.954125 c 0.07977,1.47662 0.04921,1.547545 -0.818097,1.906833 -0.954446,0.395346 -0.83508,0.819256 0.230627,0.819256 0.896291,0 1.401482,0.445459 1.401482,1.235798 0,0.950908 0.383252,1.046343 0.735464,0.183021 0.18077,-0.442919 0.511495,-0.87548 0.735078,-0.961266 z m 96.944782,1.109806 c 0.006,-0.958499 0.3982,-1.356193 1.53493,-1.558418 l 1.05065,-0.186881 -1.05052,-0.520245 c -1.01958,-0.504966 -1.04657,-0.555111 -0.91707,-1.704256 l 0.13349,-1.183979 -0.73347,0.702719 c -0.85104,0.815363 -1.29724,0.870301 -2.15998,0.266009 -0.83897,-0.587631 -0.99472,-0.340311 -0.44961,0.713817 0.44061,0.852095 0.43455,0.890598 -0.2525,1.607758 -0.38718,0.404096 -0.70394,0.808384 -0.70394,0.898351 0,0.09007 0.48738,0.0981 1.08308,0.0193 0.99305,-0.133165 1.12332,-0.07462 1.56749,0.705743 0.572,1.00485 0.89172,1.090732 0.89748,0.241241 z M 46.818225,86.428253 c 0.647073,-0.49834 2.660472,-4.479526 2.660472,-5.260633 v -0.66856 h -5.997351 -5.997383 v 0.693006 c 0,1.062844 0.830962,4.852356 1.148178,5.236187 0.200069,0.242207 1.359764,0.340761 4.012645,0.340761 2.567095,0 3.869025,-0.106146 4.173439,-0.340761 z m 67.211615,0 c 0.28113,-0.339056 1.14715,-4.428544 1.14715,-5.417826 0,-0.500913 -0.30783,-0.516319 -8.92789,-0.446939 l -8.927879,0.07205 -0.07849,2.706661 c -0.04311,1.48865 -0.01608,2.868743 0.0595,3.066818 0.196209,0.511399 16.304079,0.530055 16.727629,0.0193 z M 49.875168,78.522652 c 0.07398,-0.337351 0.259898,-1.339853 0.41352,-2.227813 0.153751,-0.887961 0.463537,-1.895706 0.688759,-2.239425 0.225158,-0.343721 0.409499,-0.690594 0.409499,-0.770846 0,-0.08009 -3.189498,-0.146032 -7.087793,-0.146032 H 37.21136 v 2.998691 2.99866 h 6.264775 6.264774 z m 65.574422,-2.385296 v -2.998691 h -9.03171 -9.031686 l 0.168869,1.022283 c 0.09296,0.562253 0.170478,1.91166 0.172086,2.998692 l 0.003,1.976376 h 8.859731 8.85972 z m 19.68348,-2.966622 c 0.1055,-0.09392 0.0595,-1.064581 -0.10261,-2.156889 -0.16211,-1.09234 -0.24349,-2.037201 -0.1811,-2.099731 0.0624,-0.0624 1.70349,-0.321912 3.64661,-0.576437 4.90629,-0.642635 4.72025,-0.541538 4.46457,-2.425535 -0.11548,-0.851195 -0.24961,-1.586337 -0.29818,-1.633685 -0.12898,-0.126089 -10.88457,1.437347 -11.05386,1.606633 -0.12416,0.12416 0.49181,4.880342 0.91312,7.048906 0.13799,0.710182 0.20521,0.740482 1.28256,0.578496 0.62533,-0.09392 1.22342,-0.247674 1.32905,-0.341758 z M 54.592236,68.842193 c 1.088223,-1.610173 1.977599,-3.0196 1.976409,-3.13205 -0.0011,-0.112579 -3.005768,-0.204573 -6.676782,-0.204573 h -6.674628 l -2.86662,2.630494 c -1.660158,1.523389 -2.866652,2.842817 -2.866652,3.134977 0,0.478879 0.384249,0.504354 7.564871,0.501588 l 7.56484,-0.0029 1.978562,-2.927606 z m 60.584754,2.418329 c 0,-0.986354 -0.86645,-5.075681 -1.14715,-5.414094 -0.21647,-0.260862 -2.54397,-0.340762 -9.92682,-0.340762 -5.304279,0 -9.644174,0.07012 -9.644174,0.156003 0,0.08589 0.298174,0.668463 0.662738,1.294887 0.567817,0.9759 1.164422,2.357246 1.875344,4.342115 0.157932,0.441278 0.846498,0.477046 9.175462,0.477046 8.64737,0 9.0046,-0.0193 9.0046,-0.515099 z M 28.175625,69.049563 c 0.186559,0 0.701336,0.187204 1.143676,0.4159 0.880434,0.455302 1.024728,0.252499 0.404031,-0.568236 -0.581102,-0.768304 -0.510371,-1.220294 0.32783,-2.095195 l 0.745403,-0.778019 -1.143933,0.183022 c -1.109935,0.177554 -1.162429,0.1515 -1.766497,-0.872296 l -0.622594,-1.055188 -0.237704,1.126338 c -0.218725,1.036533 -0.327412,1.1467 -1.364202,1.381862 l -1.126596,0.255393 1.044092,0.518863 c 1.033348,0.513553 1.042226,0.53163 0.862034,1.752889 l -0.182056,1.233965 0.788537,-0.749649 c 0.433687,-0.412329 0.941258,-0.74968 1.127914,-0.74968 z m 98.074845,0.280483 c -0.16018,-1.002373 -0.11258,-1.113762 0.64669,-1.506342 0.98825,-0.511045 1.06287,-0.955121 0.16051,-0.955121 -1.12412,0 -1.52166,-0.288203 -1.52166,-1.103501 0,-1.101765 -0.50696,-1.268447 -0.85155,-0.27984 -0.31007,0.889375 -0.38367,0.922473 -1.87451,0.841995 l -0.95412,-0.05147 0.80031,0.841353 c 0.79558,0.836334 0.79764,0.847013 0.3452,1.795798 -0.52584,1.102665 -0.52363,1.104112 0.76126,0.491393 0.96374,-0.459581 0.9767,-0.457522 1.70683,0.272441 0.40464,0.404642 0.78484,0.735722 0.84489,0.735722 0.0601,0 0.0322,-0.487115 -0.064,-1.082434 z M 61.181465,64.30213 c 0.587535,-0.707962 0.27212,-0.676471 -1.548157,0.154717 l -1.703806,0.777922 0.0096,2.520712 0.0096,2.520713 1.432007,-2.764334 c 0.787604,-1.520366 1.598367,-2.964757 1.801653,-3.209697 z m -22.575828,4.573354 c 0.636137,-0.766504 6.512352,-5.901948 9.515161,-8.315679 5.588753,-4.492392 12.690796,-8.749944 17.759015,-10.64626 1.754273,-0.65637 2.738666,-0.856021 4.316994,-0.87548 2.432997,-0.02895 3.364477,0.453758 4.069416,2.113561 l 0.457586,1.077511 3.047326,0.05661 3.047294,0.05661 0.17691,-0.943445 c 0.287559,-1.533554 -0.05018,-5.829447 -0.551638,-7.016676 -0.899379,-2.128712 -2.400607,-3.138676 -4.665346,-3.138676 -1.940158,0 -3.548914,0.482708 -6.900912,2.070685 -6.467579,3.063956 -14.902655,9.385631 -25.340001,18.991146 -4.981372,4.584386 -5.780942,5.461925 -5.780942,6.344642 0,0.777697 0.320047,0.862743 0.849073,0.22548 z m 5.011993,-7.597295 3.271295,-3.114938 -2.651627,-0.0096 c -3.075888,-0.0096 -2.906634,-0.141206 -4.28338,3.307641 -1.005976,2.520038 -1.038784,2.956942 -0.220977,2.942274 0.400942,-0.0064 1.746264,-1.089766 3.884658,-3.125938 z m 17.897133,1.32837 c 1.896928,-0.919772 4.037187,-2.085159 4.75615,-2.589772 0.718931,-0.504644 1.681708,-1.127045 2.139487,-1.383148 0.799281,-0.447164 0.497022,-0.466077 -7.618524,-0.476563 l -8.450805,-0.0096 -2.085417,1.567006 c -2.901488,2.180209 -5.379999,4.251859 -5.396983,4.511081 -0.0064,0.119977 2.960511,0.181091 6.596402,0.136381 l 6.610747,-0.0817 z m 52.026577,1.446643 c 0,-0.419953 -1.1834,-3.395131 -1.94337,-4.885776 l -0.52118,-1.022284 H 98.353989 85.63119 l 1.619596,0.974485 c 2.313245,1.391834 4.245233,2.93359 5.262692,4.199688 l 0.880626,1.095813 h 10.073616 c 8.19117,0 10.07362,-0.06755 10.07362,-0.361926 z m 23.12219,-1.253972 c 2.89653,-0.731185 5.32143,-1.384402 5.38862,-1.451595 0.23448,-0.234487 -0.54215,-2.989139 -0.87933,-3.11854 -0.18689,-0.07173 -2.68515,0.455398 -5.55142,1.171466 l -5.21145,1.30193 0.1679,0.697734 c 0.36186,1.503608 0.70665,2.741947 0.76159,2.735353 0.0322,-0.0032 2.42752,-0.605161 5.32406,-1.336348 z m -4.19743,-4.449611 c 0.94065,-0.787154 2.89435,-2.396522 4.34156,-3.576384 1.44726,-1.179863 2.63124,-2.283911 2.63114,-2.453455 -2.9e-4,-0.387079 -0.91414,-2.812839 -1.14763,-3.046361 -0.18463,-0.184308 -11.43161,0.642184 -11.64536,0.855924 -0.0695,0.06948 0.0637,0.643953 0.29593,1.276776 0.40554,1.105175 0.46781,1.150592 1.57852,1.150592 1.04297,0 1.20608,0.0936 1.66434,0.954124 0.7169,1.346383 0.65315,1.987956 -0.26504,2.666809 l -0.79593,0.588468 0.59149,1.506791 c 0.32532,0.828745 0.69255,1.50705 0.81606,1.50734 0.12351,2.89e-4 0.99417,-0.643471 1.93482,-1.430624 z m 0.14539,-5.40734 c -0.38905,-0.726908 -0.34395,-0.760939 1.26076,-0.951133 l 1.34149,-0.158898 -0.89028,0.839358 c -1.05069,0.990601 -1.30521,1.03084 -1.71197,0.270833 z m -59.354652,3.132854 c 0.260219,-0.571163 0.224194,-0.862582 -0.205537,-1.660672 l -0.521275,-0.967924 0.753477,-0.600787 c 0.659521,-0.525873 0.718867,-0.69188 0.475921,-1.330911 l -0.277589,-0.73006 h -4.366013 -4.366015 l -2.660374,1.382601 c -3.297864,1.71397 -7.707398,4.387919 -7.579058,4.595997 0.05276,0.08524 4.221077,0.121264 9.263306,0.07977 l 9.167614,-0.07527 z m -21.20159,-2.223536 3.514948,-2.930533 -4.568689,-0.07495 -4.568656,-0.07495 -0.589723,0.727133 c -1.006265,1.240783 -3.452096,4.826463 -3.452096,5.060949 0,0.12255 1.383599,0.222585 3.074635,0.222585 h 3.074634 z m 58.214962,2.759123 c 0,-0.247031 -2.09149,-3.307351 -3.18992,-4.667373 L 106.1446,50.784779 H 93.895532 81.646465 v 0.922763 c 0,0.686187 0.176589,1.038528 0.689082,1.374271 0.642537,0.421013 0.660968,0.491713 0.272441,1.04615 -0.498341,0.711501 -0.542985,1.873415 -0.08942,2.327044 0.245746,0.245744 3.737758,0.327123 14.03927,0.327123 7.541672,0 13.712142,-0.0772 13.712142,-0.171443 z M 77.941419,54.068007 c 0.763351,0.0064 1.845559,0.175302 2.404917,0.374984 0.808834,0.288847 1.074617,0.293672 1.298263,0.02573 0.38991,-0.469841 -0.144423,-0.862356 -1.644524,-1.20804 -1.559223,-0.35932 -2.641076,-0.362375 -4.269421,-0.01287 -1.640633,0.352919 -2.112373,0.641573 -1.910084,1.168765 0.140564,0.366526 0.309111,0.369743 1.446097,0.02895 0.707801,-0.212936 1.911433,-0.381933 2.674752,-0.37534 z M 34.92716,53.24576 c -0.166295,-1.040231 -0.132844,-1.103662 0.851131,-1.611073 l 1.02431,-0.528189 -0.81784,-0.183665 c -1.42342,-0.319725 -1.499233,-0.377719 -1.503511,-1.151813 -0.0022,-0.417026 -0.111614,-0.927782 -0.24285,-1.135024 -0.187524,-0.296244 -0.27791,-0.252499 -0.422589,0.202964 -0.32944,1.03798 -0.889087,1.378098 -1.990337,1.209647 l -1.020288,-0.156002 0.805487,0.860073 c 0.805166,0.859751 0.805295,0.860394 0.314258,1.691743 -0.61121,1.034699 -0.447809,1.226503 0.588338,0.69069 0.776121,-0.401361 0.831831,-0.387627 1.575691,0.388816 0.424102,0.442662 0.825173,0.804845 0.891241,0.804845 0.06594,0 0.04214,-0.487275 -0.05307,-1.082883 z m 83.58909,0.377044 c 0.5565,-0.70748 0.74119,-0.726136 2.32975,-0.23513 l 0.62565,0.193314 -0.45887,-0.962294 c -0.4447,-0.93251 -0.4398,-0.989056 0.15824,-1.828769 l 0.617,-0.866473 -1.19269,0.17305 c -1.13435,0.164365 -1.21872,0.128984 -1.72532,-0.727841 l -0.53269,-0.900762 -0.14894,1.09041 c -0.14055,1.029842 -0.21712,1.107136 -1.37558,1.391125 l -1.22673,0.300747 1.09044,0.52626 c 1.01328,0.489011 1.08478,0.597924 1.01048,1.539408 -0.0945,1.196974 0.0792,1.26124 0.82932,0.307181 z m 9.07787,-5.651926 1.30618,-1.996094 1.89046,0.0193 c 1.8343,0.0193 1.91452,-0.0096 2.70052,-0.934439 0.71339,-0.840291 0.79725,-1.118587 0.70294,-2.332738 -0.0895,-1.151299 -0.41873,-1.858971 -1.99722,-4.291615 -1.03962,-1.602131 -1.97236,-2.913838 -2.07281,-2.914932 -0.31394,-0.0032 -9.08099,5.746717 -9.17883,6.02022 -0.0511,0.142816 0.29398,0.862486 0.76704,1.599461 l 0.85988,1.340015 1.66052,-1.073234 c 0.9133,-0.590301 1.76804,-1.073266 1.89943,-1.073266 0.69513,0 0.42542,0.981562 -0.705,2.565712 -0.68976,0.966573 -1.25407,1.829316 -1.25407,1.917192 0,0.16919 1.9399,3.150094 2.0501,3.150094 0.0357,0 0.65244,-0.898221 1.37086,-1.996061 z m 1.50451,-5.883486 c -0.74673,-1.048691 -0.71095,-1.507113 0.14828,-1.898599 0.84869,-0.386693 1.24773,-0.137347 1.76035,1.100317 0.31072,0.750003 0.29271,0.887349 -0.15922,1.217688 -0.75215,0.549998 -1.12244,0.461221 -1.74951,-0.419406 z m -69.260749,5.669167 c 1.274461,-0.913338 3.293424,-2.261716 4.486635,-2.996375 l 2.169464,-1.3358 h -5.938134 -5.938134 l -1.95608,1.479901 c -1.075839,0.813947 -2.626601,2.163354 -3.446113,2.998692 l -1.490034,1.518757 4.897613,-0.0022 4.897613,-0.0022 2.31717,-1.660575 z m 43.743189,0.280162 c -0.74402,-0.761808 -2.31105,-2.111214 -3.48226,-2.998692 l -2.129488,-1.613581 h -8.543667 -8.543668 l 0.382223,1.270054 c 0.210363,0.698537 0.382223,1.853889 0.382223,2.567449 0,2.356957 -1.077802,2.159847 11.809204,2.159847 H 104.93386 Z M 70.258468,41.674002 c 4.085532,-1.8068 7.551813,-1.752505 9.638227,0.151178 0.533561,0.486792 1.029166,0.513328 8.314488,0.44517 l 7.747153,-0.07237 -2.862374,-1.40129 c -5.636679,-2.759445 -10.041099,-3.755384 -16.629041,-3.760209 -4.727876,-0.0032 -7.136105,0.296244 -10.767975,1.340239 -3.169329,0.910991 -6.859482,2.487904 -8.587122,3.669535 -0.285308,0.195244 1.414862,0.280805 5.622687,0.2837 5.793229,0.0032 6.090534,-0.02252 7.523957,-0.655823 z M 46.351054,39.382501 c 1.22885,-0.135096 1.378291,-0.496282 0.412072,-0.995941 -0.815524,-0.421721 -0.858723,-0.517188 -0.688888,-1.522521 0.20618,-1.220776 0.08845,-1.291283 -0.882397,-0.527642 l -0.69278,0.544915 -0.962552,-0.5949 -0.962584,-0.594901 0.203286,0.663349 c 0.517992,1.691165 0.499304,1.85775 -0.288524,2.569025 l -0.779113,0.70346 1.090443,-0.07784 c 1.027172,-0.07333 1.120837,-0.01608 1.615286,0.997451 l 0.524844,1.075325 0.300104,-1.075325 c 0.253464,-0.907484 0.426707,-1.08922 1.11077,-1.164454 z m 61.970056,1.043255 c 0.26279,-0.753894 0.3874,-0.818386 1.59415,-0.825141 l 1.30907,-0.0064 -0.93398,-0.77448 c -0.8981,-0.74476 -0.92023,-0.807611 -0.57667,-1.637062 0.44553,-1.075614 0.22901,-1.323095 -0.65212,-0.745692 -0.90051,0.590011 -1.21904,0.563442 -2.00799,-0.167583 l -0.66203,-0.613364 0.19073,1.154099 c 0.18527,1.122735 0.16212,1.170855 -0.85489,1.771932 l -1.04547,0.617866 1.21794,0.136382 c 1.09569,0.12255 1.2433,0.225158 1.47061,1.022251 0.31458,1.1026 0.58344,1.121868 0.95078,0.06819 z M 37.401748,37.836981 c 2.828246,-0.905008 3.079522,-1.073073 2.488353,-1.66437 -0.392193,-0.392323 -0.629157,-0.412845 -1.688205,-0.146032 -0.677566,0.170478 -1.729667,0.310075 -2.33798,0.310075 h -1.106011 v -1.189962 c 0,-1.436574 -0.7473,-2.510484 -2.158464,-3.101782 l -0.976513,-0.409145 1.635648,-1.484308 c 2.869514,-2.604053 7.781088,-6.179376 8.079261,-5.881202 0.149892,0.149891 0.233522,0.748652 0.185596,1.330654 l -0.08685,1.05818 -1.499329,0.144745 c -2.461271,0.237381 -3.543897,1.177546 -3.543897,3.076983 0,2.416689 1.484534,3.515526 4.974939,3.6824 l 2.385457,0.114188 v -0.84087 c 0,-0.837332 -0.0064,-0.840806 -1.465363,-0.823405 -2.096128,0.02573 -3.413466,-0.794325 -3.432894,-2.135305 -0.0096,-0.591877 0.896839,-1.446643 1.532364,-1.446643 0.181092,0 0.368488,0.27598 0.416382,0.613364 0.07141,0.502264 0.259576,0.613364 1.038399,0.613364 0.898832,0 0.964836,-0.06401 1.197328,-1.158569 0.135417,-0.637231 0.331175,-1.1586 0.435263,-1.1586 0.104216,0 0.669332,0.612012 1.256127,1.36002 0.586827,0.748009 1.340657,1.43545 1.675242,1.527635 0.694261,0.191386 2.557124,-0.185916 2.565197,-0.519375 0.003,-0.121907 -1.16989,-1.736197 -2.606336,-3.587513 -1.436447,-1.851317 -2.611709,-3.480081 -2.611709,-3.619422 0,-0.139276 0.306859,-0.393094 0.681522,-0.563861 0.898929,-0.409595 0.859944,-0.607091 -0.272119,-1.378033 l -0.949944,-0.646913 -1.842439,1.179283 c -2.967331,1.899276 -6.581284,4.669625 -9.000321,6.899401 l -2.251004,2.074867 -1.701812,0.0476 c -0.935983,0.02573 -2.164641,0.01608 -2.730303,-0.0193 -1.690779,-0.109684 -2.838411,0.429795 -3.758698,1.767364 -0.456814,0.663993 -0.765313,1.312932 -0.685478,1.442076 0.07977,0.129305 0.529283,0.393963 0.998802,0.588435 0.82244,0.340665 0.884938,0.31683 1.709628,-0.649839 0.775606,-0.90919 1.021383,-1.020064 2.617531,-1.180795 l 1.761542,-0.177232 -1.463786,1.682963 c -0.80507,0.925594 -1.41377,1.729152 -1.352624,1.785666 0.06112,0.05661 0.615165,0.185917 1.231199,0.28756 1.078669,0.178197 1.161495,0.137668 2.242642,-1.090442 0.90861,-1.032222 1.244804,-1.244675 1.763729,-1.114405 0.352631,0.08845 0.779982,0.465627 0.949687,0.838072 0.275658,0.605322 0.222906,0.738197 -0.498469,1.251848 -1.020932,0.726972 -1.055286,1.665721 -0.08878,2.425985 1.028169,0.808737 3.543188,0.762547 6.287291,-0.115474 z m 82.682182,-4.404387 c 1.57431,-1.883129 3.15997,-3.795077 3.5237,-4.248739 l 0.66132,-0.824884 -0.93393,-0.774449 c -0.51367,-0.425935 -1.06258,-0.777761 -1.21981,-0.781781 -0.24929,-0.0064 -2.71894,2.957648 -3.39455,4.073887 -0.48917,0.808125 -0.47119,0.07141 0.0789,-3.234722 l 0.56225,-3.378921 -1.20386,-1.026529 c -0.66209,-0.5646 -1.29897,-0.96773 -1.41525,-0.895872 -0.41831,0.25861 -7.01789,8.249964 -7.01789,8.497959 0,0.234165 1.71634,1.681612 1.99384,1.681612 0.0669,0 1.02372,-1.096103 2.12588,-2.435763 1.10214,-1.339661 2.02458,-2.413055 2.04991,-2.385329 0.0258,0.02895 -0.18592,1.399874 -0.46965,3.04916 -0.71244,4.143333 -0.69163,4.448068 0.36552,5.353045 0.48728,0.417153 1.00865,0.757722 1.15857,0.756821 0.1499,-8.05e-4 1.56067,-1.542367 3.13498,-3.425495 z m -60.698457,-1.45758 c 0.542052,-0.917617 0.530216,-0.913789 1.748966,-0.564247 1.040135,0.298175 1.06799,0.22516 0.315865,-0.831284 l -0.568364,-0.798187 0.578045,-0.979664 0.578014,-0.979697 -0.665857,0.167262 c -0.366237,0.092 -0.850874,0.238024 -1.076964,0.324871 -0.260541,0.100035 -0.64405,-0.158898 -1.047598,-0.707577 l -0.636523,-0.865316 -0.136382,1.184752 c -0.118691,1.03055 -0.26054,1.243421 -1.09041,1.635679 l -0.954124,0.45096 0.954124,0.247353 c 0.878504,0.227732 0.960751,0.33806 1.037948,1.390192 0.09939,1.355325 0.312327,1.427086 0.963228,0.324903 z m 35.897646,-1.669775 c 1.198131,-0.358966 1.195044,-0.656111 -0.0096,-0.920672 -0.760529,-0.166938 -0.815467,-0.263757 -0.825824,-1.452175 l -0.0096,-1.273238 -0.75843,0.885998 c -0.798445,0.93267 -1.351144,1.077318 -2.259369,0.591266 -0.782489,-0.418763 -0.872907,-0.174015 -0.23513,0.636844 0.697863,0.887189 0.690336,1.244257 -0.04278,2.024528 -0.754281,0.802914 -0.485538,1.078219 0.609696,0.624557 0.819159,-0.339281 0.882139,-0.316508 1.576238,0.573865 l 0.722951,0.927298 0.08363,-1.149433 c 0.07816,-1.076289 0.151499,-1.169763 1.149658,-1.468838 z m 14.030741,-0.851838 c 0.0795,-0.337351 0.62163,-2.918696 1.20466,-5.736328 l 1.06008,-5.122932 -0.7224,-0.442018 c -0.39734,-0.243171 -0.99414,-0.605902 -1.32622,-0.80626 -0.33207,-0.200391 -0.76142,-0.363149 -0.95412,-0.36183 -0.35482,0.0024 -8.4537,7.433058 -8.617299,7.906244 -0.04894,0.141206 0.471549,0.528833 1.156289,0.86152 l 1.245,0.604872 0.79989,-0.76631 0.79986,-0.766342 1.17883,0.658362 c 1.12666,0.629221 1.17558,0.709153 1.10543,1.806221 -0.0704,1.099063 -0.0193,1.182532 1.21193,1.963027 1.54086,0.977156 1.6719,0.991372 1.85807,0.201678 z m -3.06476,-6.109769 c -0.57296,-0.23127 -0.38531,-0.759749 0.61337,-1.727705 1.02128,-0.98986 1.14319,-0.828003 0.66718,0.885998 -0.27148,0.977574 -0.52723,1.145703 -1.28055,0.841707 z m -29.15775,5.456135 c 0.993463,0.570165 1.205787,0.411847 0.759942,-0.566692 -0.312971,-0.687151 -0.273729,-0.804362 0.500944,-1.496627 0.462348,-0.413102 0.840614,-0.814173 0.840614,-0.891242 0,-0.0772 -0.493741,-0.140242 -1.097229,-0.140242 -1.00276,0 -1.111447,-0.07077 -1.261949,-0.823468 -0.241562,-1.207621 -0.509951,-1.204018 -0.988124,0.01287 -0.387722,0.987095 -0.513457,1.082819 -1.422293,1.082819 h -0.996969 l 0.853736,0.718384 c 0.510145,0.429248 0.792397,0.878311 0.701272,1.115756 -0.08395,0.218404 -0.231913,0.714331 -0.329278,1.101764 l -0.17691,0.704425 0.90192,-0.642217 c 0.873678,-0.622112 0.927331,-0.627645 1.714227,-0.175945 z m 24.10086,-9.503711 c 1.08851,-2.828278 1.95093,-5.169926 1.91645,-5.203667 -0.29817,-0.291742 -3.0855,-1.146443 -3.233656,-0.99147 -0.105508,0.110328 -0.989608,2.285937 -1.964963,4.834827 -0.975321,2.548889 -1.852764,4.837206 -1.949871,5.085202 -0.137989,0.352662 0.139277,0.572063 1.273785,1.007262 0.797673,0.305893 1.56929,0.523493 1.71471,0.483287 0.145388,-0.0402 1.154995,-2.387194 2.243545,-5.215441 z m -43.243472,2.033599 c 1.124859,-0.800986 1.541819,-2.349013 0.961876,-3.571141 -0.506382,-1.067155 -1.680711,-1.867336 -2.7405,-1.867336 -1.587719,0 -3.147521,1.486078 -3.147521,2.998692 0,0.800181 0.700565,2.067823 1.422133,2.573207 0.859847,0.602267 2.56182,0.537453 3.504012,-0.133487 z m 35.061182,-0.0032 c 1.977759,-0.747236 3.341607,-2.990392 3.351193,-5.511716 0.01287,-3.241445 -1.347477,-4.734953 -5.116789,-5.619857 -3.646247,-0.8560523 -3.468919,-0.9241466 -4.009396,1.539505 -0.255072,1.16201 -0.803203,3.556794 -1.21846,5.321779 -0.487983,2.074191 -0.65682,3.26975 -0.477336,3.380689 0.519054,0.32069 4.41674,1.129973 5.562538,1.154805 0.627452,0.01287 1.486174,-0.105825 1.90825,-0.265044 z m -3.5787,-2.683502 c -0.08395,-0.136059 0.137025,-1.454812 0.491134,-2.930533 0.533755,-2.223599 0.738553,-2.697333 1.195785,-2.766135 0.814301,-0.122551 1.70506,1.155224 1.70506,2.445671 0,1.345739 -0.609343,2.822425 -1.322034,3.203843 -0.670103,0.358613 -1.860676,0.385761 -2.069945,0.04729 z m -17.053529,0.492214 c 0,-1.448604 -0.541056,-8.919456 -0.70391,-9.7197014 -0.117725,-0.5782389 -0.218725,-0.6045503 -1.687047,-0.4391875 -0.859011,0.096818 -1.605894,0.2129355 -1.659674,0.2586105 -0.117727,0.099713 0.483479,9.5328204 0.663284,10.4051164 0.114187,0.5536 0.285308,0.613363 1.756879,0.613363 h 1.630468 z m 11.273392,0.90993 c 0.07077,-0.114509 0.163722,-2.659989 0.206501,-5.65659 l 0.07784,-5.4483829 -1.432618,-0.082987 -1.432618,-0.082987 0.03217,2.8089799 c 0.04053,3.590311 0.05694,3.470753 -0.36244,2.672727 C 79.801682,12.470187 77.698767,8.922752 77.494934,8.781835 77.369167,8.6949885 76.615047,8.5972052 75.819241,8.5650397 L 74.372373,8.506499 74.19289,12.651215 c -0.09875,2.2796 -0.179484,4.867666 -0.179484,5.751252 v 1.606538 l 1.431204,-0.08234 1.431171,-0.08235 0.0788,-3.134977 0.0788,-3.134977 1.764406,2.99866 c 0.970401,1.649285 1.970489,3.152024 2.22241,3.339453 0.499241,0.371382 2.423669,0.468329 2.631201,0.132521 z"
       id="path248" /></g></svg>
