<?xml version="1.0" encoding="UTF-8" standalone="no"?>
<!-- Created with Inkscape (http://www.inkscape.org/) -->

<svg
   width="580"
   height="580"
   viewBox="0 0 153.45833 153.45833"
   version="1.1"
   id="svg6374"
   inkscape:version="1.2.2 (732a01da63, 2022-12-09)"
   sodipodi:docname="Line 4.svg"
   xmlns:inkscape="http://www.inkscape.org/namespaces/inkscape"
   xmlns:sodipodi="http://sodipodi.sourceforge.net/DTD/sodipodi-0.dtd"
   xmlns="http://www.w3.org/2000/svg"
   xmlns:svg="http://www.w3.org/2000/svg">
  <sodipodi:namedview
     id="namedview6376"
     pagecolor="#ffffff"
     bordercolor="#000000"
     borderopacity="0.25"
     inkscape:showpageshadow="2"
     inkscape:pageopacity="0.0"
     inkscape:pagecheckerboard="0"
     inkscape:deskcolor="#d1d1d1"
     inkscape:document-units="mm"
     showgrid="false"
     inkscape:zoom="0.17906146"
     inkscape:cx="-904.7173"
     inkscape:cy="13.961687"
     inkscape:window-width="1920"
     inkscape:window-height="991"
     inkscape:window-x="-9"
     inkscape:window-y="-9"
     inkscape:window-maximized="1"
     inkscape:current-layer="layer1" />
  <defs
     id="defs6371" />
  <g
     inkscape:label="Layer 1"
     inkscape:groupmode="layer"
     id="layer1">
    <rect
       style="display:inline;fill:none;fill-opacity:1;fill-rule:evenodd;stroke:none;stroke-width:0.5;stroke-linecap:square;stroke-dasharray:none"
       id="rect7651"
       width="153.45833"
       height="153.45833"
       x="2.5431316e-06"
       y="2.5431316e-06" />
    <path
       style="display:inline;fill:#ffff00;fill-opacity:1;stroke:none;stroke-width:1.5;stroke-dasharray:none"
       d="m 2.0046743,152.43246 c -0.8764009,-0.38174 -1.75181053,-1.46516 -1.92355358,-2.38064 -0.29311581,-1.56244 0.20964991,-2.85075 1.48372408,-3.80198 0.5650935,-0.4219 0.852681,-0.43908 7.3505896,-0.43908 h 6.7624886 l 0.763015,0.58198 c 2.013494,1.53577 1.745143,4.77984 -0.489703,5.91997 -0.763443,0.38947 -1.265566,0.41871 -7.0595098,0.41096 -4.7030244,-0.007 -6.3973842,-0.0779 -6.8870509,-0.29121 z m 21.3067077,-9.4e-4 c -2.967317,-1.31883 -2.507894,-6.04433 0.645154,-6.63584 l 0.739097,-0.13866 v -8.25123 -8.25135 l -4.099509,-1.33254 c -4.825429,-1.56849 -5.360094,-1.81799 -6.427368,-2.99933 -1.542433,-1.70728 -1.678365,-2.27478 -1.833575,-7.65486 -0.134195,-4.65155 -0.196044,-5.16519 -2.115538,-17.569327 L 8.2423418,86.820419 9.0250627,73.403844 C 10.904518,41.188254 12.194337,21.76667 12.582057,19.844026 13.610241,14.745415 18.550488,10.201988 25.653959,7.8221049 28.15733,6.9833984 33.477848,5.6831255 37.371559,4.958462 50.272266,2.5574896 73.071617,0.37608418 81.023949,0.78186966 91.735698,1.3284606 107.44735,3.1039399 117.01445,4.8489405 c 11.92861,2.1757296 17.84719,4.5059247 21.82855,8.5940965 2.29451,2.356072 3.385,4.581775 3.81439,7.785238 0.44735,3.337516 1.93683,25.623724 3.63654,54.411667 l 0.64757,10.96752 -2.05167,12.884173 c -2.0058,12.596225 -2.05493,12.991255 -2.19892,17.675805 -0.16532,5.37857 -0.30387,5.95511 -1.83949,7.65486 -1.07831,1.19356 -1.5931,1.43017 -6.74682,3.10098 l -4.41894,1.43263 v 8.16854 8.16854 l 10.82455,0.0588 10.82456,0.0589 0.76283,0.58198 c 2.0133,1.53598 1.74485,4.77989 -0.48988,5.91997 -0.81226,0.41437 -1.56746,0.4192 -64.239682,0.41096 -52.373688,-0.007 -63.529031,-0.0578 -64.056656,-0.29229 z m 55.152246,-14.6973 c 0.399794,-0.16705 0.851015,-0.50246 1.002712,-0.74537 0.266783,-0.42718 0.445098,-0.44164 5.445739,-0.44164 h 5.16992 l -0.05681,-5.48376 -0.05686,-5.48376 -5.377281,-0.0569 -5.377278,-0.0569 v 0.75869 c 0,0.92018 -0.782588,1.80416 -1.597211,1.80416 -0.814622,0 -1.597211,-0.88398 -1.597211,-1.80416 v -0.75869 l -5.377279,0.0569 -5.377277,0.0569 -0.05684,5.48376 -0.05684,5.48376 h 5.169924 c 4.9978,0 5.179092,0.0147 5.445268,0.44089 0.24166,0.38696 1.334632,1.01802 1.803845,1.0415 0.09161,0.005 0.493667,-0.12834 0.893463,-0.29538 z m -1.642961,-0.66852 c -1.095156,-0.59422 -1.044702,-2.18822 0.0878,-2.77386 0.612828,-0.3169 0.730171,-0.31775 1.375574,-0.01 1.1955,0.57009 1.245131,2.19416 0.08538,2.79388 -0.755027,0.39045 -0.81135,0.39008 -1.548753,-0.01 z m 5.372405,-2.91431 c -1.258825,-0.85675 -1.595046,-1.51444 -1.595046,-3.12013 0,-1.2338 0.08161,-1.54545 0.573622,-2.19052 0.814419,-1.06776 1.879458,-1.52094 3.297899,-1.40332 2.017353,0.1673 3.262689,1.531 3.262689,3.57279 0,1.39655 -0.508567,2.34196 -1.687012,3.13611 -1.000995,0.67457 -2.864848,0.67703 -3.852152,0.005 z m 4.679826,-1.84942 c 0.241564,-0.45136 0.296021,-1.91185 0.09119,-2.44564 -0.108546,-0.28286 -0.565694,-0.33685 -2.852195,-0.33685 -3.031594,0 -2.981461,-0.0256 -2.981461,1.52215 0,1.60981 0.11136,1.67228 2.981461,1.67228 2.293812,0 2.561963,-0.04 2.761007,-0.41194 z m -29.381195,-5.23182 v -9.47679 h 20.018381 20.018381 v 9.49988 9.49987 l 0.496073,-0.12451 c 1.695293,-0.42549 30.199582,-9.15996 35.995882,-11.0301 5.9996,-1.93571 6.09245,-2.05229 6.11532,-7.67858 0.012,-2.92853 0.13372,-4.42004 0.59629,-7.30077 l 0.58135,-3.62035 -11.08465,-0.0554 c -6.09658,-0.0305 -11.20446,-0.009 -11.35087,0.0466 -0.19608,0.075 -0.2662,0.91719 -0.2662,3.19655 v 3.09462 H 102.21361 85.815583 v -3.19441 -3.19442 H 67.634891 49.4542 l -0.14892,-1.51131 c -0.08191,-0.83121 -0.08915,-1.57107 -0.0161,-1.64413 0.07305,-0.0731 0.439142,-0.10689 0.813529,-0.0752 0.94004,0.0796 1.497052,-0.38236 1.497052,-1.24157 0,-0.9491 -0.519121,-1.27777 -2.01818,-1.27777 h -1.226906 l -0.0634,-1.331008 -0.0634,-1.33101 -2.555538,-0.06167 c -3.849933,-0.09291 -3.536454,-0.383052 -3.466439,3.208368 l 0.05907,3.02919 h 2.289614 2.289613 l -2.13e-4,1.11804 -2.13e-4,1.11806 H 30.339241 c -15.577722,0 -16.504353,0.021 -16.501608,0.37268 0.0017,0.20497 0.239134,1.906 0.527857,3.78006 0.399714,2.59451 0.526032,4.2634 0.529494,6.99555 0.0069,5.46943 0.130765,5.62274 6.098702,7.55063 6.151828,1.98728 35.780945,11.06054 36.231944,11.09522 0.209279,0.0161 0.266201,-2.00595 0.266201,-9.45632 z m 30.879416,-2.88317 v -0.84366 H 77.616565 66.862009 v 0.84366 0.84365 H 77.616565 88.371119 Z M 118.3987,109.82026 v -3.08793 H 102.21361 86.028545 v 3.08793 3.08794 h 16.185065 16.18509 z m -95.768866,-8.54413 c 0.374852,-0.18983 0.850261,-0.49308 1.056463,-0.67391 0.340709,-0.2988 0.418425,-0.28803 0.851847,0.11797 1.074216,1.00627 2.857495,1.19469 3.992961,0.4219 1.177517,-0.80141 1.595045,-1.540053 1.595045,-2.82175 0,-2.926793 -3.386914,-4.389836 -5.56873,-2.405523 -0.456391,0.415072 -0.460158,0.414413 -1.362962,-0.23958 -2.262356,-1.638838 -5.313593,-0.119937 -5.313593,2.645103 0,2.39901 2.623666,4.032 4.748969,2.95579 z m 106.949336,-0.0785 c 0.35139,-0.23212 0.79644,-0.53633 0.989,-0.676 0.28711,-0.20825 0.47214,-0.15129 1.02799,0.31644 0.819,0.68915 1.46609,0.87199 2.56458,0.72465 2.99094,-0.40117 3.81037,-4.507091 1.22357,-6.131007 -1.01687,-0.63837 -2.82587,-0.49181 -3.8831,0.314584 l -0.78163,0.59618 -0.46372,-0.421924 c -0.73071,-0.664853 -1.32592,-0.901074 -2.27047,-0.901074 -2.93167,0 -4.37369,3.384176 -2.39112,5.611531 0.89667,1.0074 2.88888,1.29068 3.9849,0.56662 z M 28.139488,80.824493 c 0.349228,-0.316046 0.389451,-0.740064 0.389451,-4.105364 0,-3.052012 -0.06191,-3.841312 -0.331516,-4.226224 -0.328462,-0.468943 -0.383789,-0.473308 -5.999394,-0.473308 -4.975165,0 -5.715474,0.04305 -6.057328,0.352447 -0.349841,0.316601 -0.389452,0.742678 -0.389452,4.18922 0,3.271301 0.05195,3.894175 0.35245,4.226224 0.324565,0.358647 0.799185,0.389452 5.999394,0.389452 4.955686,0 5.694618,-0.04316 6.036395,-0.352447 z M 139.36333,80.703632 c 0.26859,-0.383464 0.33151,-1.162742 0.33151,-4.105364 0,-2.942621 -0.063,-3.721899 -0.33151,-4.105363 -0.32848,-0.468943 -0.38379,-0.473308 -5.9994,-0.473308 -4.97517,0 -5.71547,0.04305 -6.05733,0.352447 -0.35022,0.316952 -0.38944,0.744386 -0.38944,4.244021 0,3.253838 0.0548,3.946411 0.33464,4.226224 0.28763,0.287625 1.13886,0.334651 6.05733,0.334651 5.67223,0 5.7256,-0.0042 6.0542,-0.473308 z M 15.325327,77.965595 v -1.720612 l -0.670391,0.147241 -0.67039,0.147247 0.117231,-1.780774 c 0.06448,-0.979425 0.18474,-1.948479 0.267252,-2.153454 0.134344,-0.33374 -0.0058,-0.372683 -1.341329,-0.372683 h -1.491351 l -0.125415,1.650447 c -0.06898,0.907752 -0.186183,2.584821 -0.260451,3.726826 l -0.135037,2.076379 h 2.15494 2.154941 z M 85.815583,75.959386 V 72.23256 l -27.951197,-3e-5 -27.951196,-3.6e-5 0.07549,1.819849 0.07549,1.819843 -0.554651,-0.139206 -0.554654,-0.139213 v 2.04622 2.046225 h 28.430362 28.430361 z m 32.583117,0 V 72.23256 H 102.21361 86.028545 v 3.726826 3.726826 h 16.185065 16.18509 z m 7.87957,2.236092 c 0,-1.838339 0.005,-1.824551 -0.60796,-1.745368 -0.4979,0.06433 -0.50085,0.0521 -0.4091,-1.703691 0.0508,-0.972676 0.16696,-1.936201 0.25809,-2.141176 0.15407,-0.346628 -0.0816,-0.372683 -3.37099,-0.372683 h -3.53665 v 3.726826 3.726826 h 3.83331 3.8333 z m 17.80833,0.479163 c -0.0662,-0.55636 -0.18255,-2.23343 -0.25856,-3.726825 l -0.13817,-2.715256 h -1.32044 -1.32047 l 0.0956,1.821075 0.0956,1.821074 -0.55969,-0.140468 -0.55968,-0.140474 v 2.04622 2.046225 h 2.04311 2.04313 z M 85.815583,46.251256 V 23.890294 h 16.397047 16.39707 l 0.0542,22.307719 0.0542,22.307715 12.40192,0.05493 12.40192,0.05494 -0.10979,-1.226243 c -0.0603,-0.674433 -0.49305,-7.455366 -0.96147,-15.068742 -0.97828,-15.899785 -1.82029,-27.958309 -2.13156,-30.526765 -0.25663,-2.117708 -0.70815,-3.385451 -1.78186,-5.003055 -2.37838,-3.583087 -6.9615,-6.100404 -14.59053,-8.0139231 C 113.02106,6.0364646 89.792498,3.2299109 78.080404,3.2351332 66.38685,3.2403248 45.014137,5.637788 33.214093,8.2679228 25.166932,10.061569 19.976527,12.495912 17.318641,15.723015 c -1.767254,2.145734 -2.32493,3.55292 -2.632953,6.64375 -0.265079,2.659913 -2.980707,44.722843 -2.980707,46.168814 0,0.04214 16.674885,0.07663 37.055301,0.07663 h 37.055301 z m -50.55295,17.031491 c -0.337411,-0.102074 -0.852885,-0.406149 -1.145494,-0.675724 -1.146787,-1.056514 -1.116033,-0.536887 -1.115678,-18.851226 4.26e-4,-18.946846 -0.07901,-17.922265 1.468654,-18.956172 l 0.723619,-0.483408 17.378107,8.45e-4 c 16.965005,8.46e-4 17.394608,0.01086 18.072182,0.423977 0.381739,0.23275 0.884501,0.735512 1.11725,1.117252 0.413066,0.67748 0.4232,1.106946 0.423977,17.965703 l 8.45e-4,17.271625 -0.479163,0.704037 c -0.26354,0.387224 -0.749693,0.904515 -1.080341,1.149546 -0.597231,0.44258 -0.71321,0.445743 -17.675804,0.482338 -9.391044,0.02023 -17.350691,-0.04666 -17.688106,-0.148744 z M 121.6353,63.1516 c -1.38296,-0.694758 -1.31994,0.208646 -1.31994,-18.923479 0,-19.186638 -0.067,-18.250661 1.35381,-18.924861 0.59033,-0.280136 1.44647,-0.348159 4.38191,-0.348159 3.99431,0 4.71203,0.152803 5.51547,1.174202 l 0.46168,0.586931 v 17.543731 17.543736 l -0.72854,0.795474 -0.72854,0.795481 -4.11633,0.05511 c -3.48501,0.04666 -4.22418,6.04e-4 -4.81952,-0.298153 z M 78.154163,47.944298 c 0.0071,-0.421174 0.98399,-3.818023 1.144072,-3.978104 0.335773,-0.335773 0.272181,0.216072 -0.227118,1.970972 -0.51278,1.802288 -0.928826,2.712974 -0.916954,2.007132 z m -4.051462,-1.715831 c 0,-1.25785 -0.05396,-1.49281 -0.319443,-1.390928 -0.178904,0.06865 -0.319442,0.0054 -0.319442,-0.143493 0,-0.146336 0.287498,-0.374584 0.638885,-0.507222 l 0.638884,-0.241149 v 1.898152 c 0,1.545276 -0.05938,1.898157 -0.319442,1.898157 -0.253985,0 -0.319442,-0.310142 -0.319442,-1.513517 z m 1.959245,1.257965 c -0.314789,-0.31479 -0.336649,-1.372885 -0.03225,-1.561013 0.153733,-0.09501 0.148642,-0.22797 -0.01636,-0.426771 -0.317312,-0.382334 -0.185846,-1.173547 0.239247,-1.439863 0.186848,-0.117057 0.602436,-0.146891 0.923534,-0.0663 0.535116,0.13431 0.578526,0.221293 0.520458,1.042924 -0.03484,0.493024 0.01008,1.108406 0.09983,1.367519 0.352745,1.01838 -0.972024,1.845952 -1.734471,1.083504 z m 1.128696,-0.809256 c 0,-0.583689 -0.474212,-0.825369 -0.661557,-0.33715 -0.176263,0.459333 0.06899,1.031582 0.395469,0.922759 0.146348,-0.04878 0.266088,-0.312309 0.266088,-0.585609 z m -0.10648,-1.822741 c 0,-0.572835 -0.368518,-0.704265 -0.561872,-0.200394 -0.163666,0.426505 0.07786,1.01937 0.347406,0.852781 0.117955,-0.0729 0.214466,-0.366476 0.214466,-0.652387 z m 3.620345,1.374032 c 0,-1.25785 -0.05396,-1.49281 -0.319443,-1.390928 -0.178904,0.06865 -0.319442,0.0054 -0.319442,-0.143493 0,-0.146336 0.287498,-0.374584 0.638885,-0.507222 l 0.638884,-0.241149 v 1.898152 c 0,1.545276 -0.05938,1.898157 -0.319442,1.898157 -0.253985,0 -0.319442,-0.310142 -0.319442,-1.513517 z m 1.924145,1.101596 c -0.12125,-0.226556 -0.220454,-0.903688 -0.220454,-1.504732 0,-0.601045 0.0992,-1.278176 0.220454,-1.504733 0.231996,-0.433484 0.954175,-0.538052 1.468425,-0.212619 0.396519,0.250928 0.573719,2.561681 0.243724,3.178282 -0.319615,0.597206 -1.401167,0.624871 -1.712149,0.04382 z m 1.163797,-1.52248 c 0,-1.072693 -0.06869,-1.366505 -0.319442,-1.366505 -0.236277,0 -0.336452,0.29834 -0.384779,1.145905 -0.07454,1.307412 0.05514,1.803459 0.438132,1.675802 0.17595,-0.05868 0.266089,-0.551605 0.266089,-1.455202 z M 16.704767,43.398822 c -0.613923,-0.936968 0.01591,-2.045682 1.162097,-2.045682 0.363687,0 0.442549,-0.138397 0.455075,-0.798607 0.0083,-0.439231 0.08336,-1.548506 0.166711,-2.46504 0.1505,-1.654823 0.148168,-1.665792 -0.334594,-1.573503 -0.434254,0.08301 -0.485655,0.0108 -0.481477,-0.676142 0.01014,-1.667434 1.372714,-3.625288 3.074562,-4.417775 2.280654,-1.062006 5.251099,-0.438234 6.715013,1.410109 0.729014,0.920452 1.279747,2.309504 1.279747,3.227753 0,0.557882 -0.0526,0.602964 -0.556025,0.47661 -0.541225,-0.135838 -0.552836,-0.117523 -0.436258,0.688069 0.06587,0.455192 0.18051,1.570322 0.254753,2.478074 0.128053,1.565686 0.161395,1.650452 0.649219,1.650452 0.6024,0 1.36608,0.687823 1.36608,1.230383 0,0.208195 -0.149184,0.591525 -0.331517,0.851846 -0.329588,0.470549 -0.367403,0.473308 -6.490417,0.473308 h -6.158898 z m 7.728597,-3.4401 c 2.130995,-0.890383 3.016591,-3.081182 2.060219,-5.09659 -0.588307,-1.239764 -1.62207,-1.890068 -3.154524,-1.984403 -1.101658,-0.06782 -1.42101,-0.0018 -2.045742,0.42252 -1.642653,1.115867 -2.245792,2.893139 -1.530546,4.510077 0.892321,2.017237 2.840146,2.913211 4.670593,2.148396 z m 50.521183,-1.858085 v -2.613615 l 1.395596,0.117106 c 0.892951,0.07493 1.467034,0.230076 1.593949,0.43076 0.264551,0.418332 0.258019,1.346615 -0.01137,1.616009 -0.146355,0.146353 -0.110726,0.427766 0.110236,0.870698 0.254751,0.510656 0.27594,0.787391 0.09644,1.259498 -0.311405,0.819059 -0.537077,0.926108 -1.960326,0.9299 l -1.224526,0.003 z m 2.213257,1.495569 c 0.320863,-0.511852 -0.08347,-1.118045 -0.745737,-1.118045 -0.529504,0 -0.785309,0.635012 -0.526987,1.308189 0.158956,0.414239 0.969797,0.293094 1.272724,-0.190144 z m -0.06883,-2.200705 c 0.378993,-0.456658 -0.0026,-1.046957 -0.67691,-1.046957 -0.418811,0 -0.521039,0.122853 -0.575928,0.692126 -0.05882,0.610051 -0.0051,0.69212 0.453089,0.69212 0.285901,0 0.645788,-0.151781 0.799749,-0.337289 z m 3.377928,1.668304 c 0.337441,-0.907752 0.715989,-1.913991 0.841218,-2.236098 l 0.227689,-0.585644 h -1.059537 c -0.867109,0 -1.059537,-0.06768 -1.059537,-0.372683 0,-0.319444 0.212962,-0.372681 1.49073,-0.372681 1.182016,0 1.491247,0.06615 1.493216,0.319438 0.0013,0.175698 -0.348904,1.349644 -0.778379,2.608779 -0.691781,2.02817 -0.837224,2.289336 -1.274898,2.289336 H 79.863375 Z M 56.638999,16.49366 c -0.422277,-0.536838 -0.452313,-0.785537 -0.388141,-3.213716 0.06521,-2.467204 0.10101,-2.657289 0.572312,-3.038481 0.486932,-0.3938301 1.140917,-0.4066291 20.776831,-0.4066291 20.108823,0 20.277874,0.00356 20.740154,0.4342201 0.434356,0.404665 0.466077,0.62708 0.466077,3.267896 0,2.474762 -0.04928,2.878321 -0.389453,3.186127 -0.356697,0.32281 -2.110427,0.352448 -20.854767,0.352448 H 57.096694 Z m 13.293206,-2.026913 c 0.09938,-0.212961 0.149073,-0.212961 0.248453,0 0.210694,0.451483 0.48301,0.295288 0.553754,-0.317622 0.04274,-0.370318 0.214235,-0.611702 0.468944,-0.660059 0.33046,-0.06274 0.382649,0.02267 0.29476,0.482424 -0.05874,0.307265 -0.02381,0.609948 0.0776,0.672628 0.101422,0.06268 0.184402,-0.116506 0.184402,-0.398195 0,-0.44447 0.09148,-0.50661 0.692125,-0.470142 0.834937,0.05069 1.027366,0.39782 0.272823,0.492149 -0.69396,0.08676 -0.698326,0.34933 -0.0065,0.389249 0.292739,0.01689 0.532252,-0.05498 0.532252,-0.15972 0,-0.104738 0.143749,-0.190433 0.319442,-0.190433 0.175694,0 0.319443,0.07564 0.319443,0.168073 0,0.09244 0.383322,0.164315 0.851827,0.159721 0.797023,-0.0078 0.853419,-0.04945 0.876549,-0.647236 0.01388,-0.358785 0.06742,-0.475493 0.122116,-0.266203 0.05357,0.204976 0.179171,0.372684 0.279123,0.372684 0.09995,0 0.225558,-0.167708 0.279122,-0.372684 0.05357,-0.204975 0.108511,-0.06122 0.122097,0.319443 0.03483,0.975968 0.450626,0.866088 0.450626,-0.119086 v -0.811209 l -1.49073,-0.02581 c -0.819901,-0.0142 -1.49073,0.05438 -1.49073,0.152389 0,0.09801 0.191665,0.12808 0.425923,0.06682 0.238132,-0.06227 0.425922,-0.0065 0.425922,0.126418 0,0.13079 -0.135911,0.237799 -0.302023,0.237799 -0.166115,0 -0.453613,0.05817 -0.638885,0.129266 -0.241488,0.09267 -0.336861,0.0022 -0.336861,-0.319443 6e-6,-0.246791 -0.09583,-0.448707 -0.212956,-0.448707 -0.117129,0 -0.189004,0.11979 -0.159722,0.266201 0.02929,0.146412 -0.138425,0.266202 -0.372683,0.266202 -0.234257,0 -0.401964,-0.11979 -0.372682,-0.266202 0.02928,-0.146411 -0.04259,-0.266201 -0.159721,-0.266201 -0.117129,0 -0.212962,0.107566 -0.212962,0.239035 0,0.168666 -0.09104,0.163487 -0.309222,-0.01759 -0.170079,-0.141149 -0.49755,-0.196862 -0.727723,-0.123807 -0.344816,0.109438 -0.397891,0.05405 -0.30147,-0.314668 0.108674,-0.415569 0.04285,-0.442781 -0.922737,-0.381433 -0.949485,0.06032 -1.039757,0.112284 -1.039757,0.598464 0,0.422494 0.120901,0.546315 0.585644,0.59979 0.357482,0.04113 0.585645,0.195745 0.585645,0.396853 0,0.24494 -0.163915,0.30541 -0.638885,0.235699 -0.435973,-0.06399 -0.638884,-0.004 -0.638884,0.188791 0,0.363604 1.197764,0.37794 1.366504,0.01636 z m 3.957534,-0.372682 c 0,-0.117129 0.186009,-0.212962 0.413354,-0.212962 0.227345,0 0.472583,-0.09583 0.544973,-0.212962 0.22257,-0.360126 0.532403,-0.236191 0.532403,0.212962 0,0.344796 -0.141974,0.425923 -0.745365,0.425923 -0.409951,0 -0.745365,-0.09583 -0.745365,-0.212961 z M 69.843471,13.45518 c 0,-0.117129 -0.191666,-0.212962 -0.425924,-0.212962 -0.665228,0 -0.499512,-0.366779 0.212962,-0.47135 0.553687,-0.08126 0.638885,-0.02769 0.638885,0.401752 0,0.272537 -0.09583,0.495521 -0.212962,0.495521 -0.117129,0 -0.212961,-0.09583 -0.212961,-0.212961 z m 9.827977,0.980534 c 0.07602,-0.104914 0.315606,-0.112138 0.532404,-0.01606 0.571826,0.253432 2.921655,0.25121 3.109433,-0.003 0.106214,-0.143755 0.213227,-0.144831 0.319442,-0.0032 0.08785,0.117129 0.519094,0.212961 0.958327,0.212961 0.674396,0 0.798605,-0.07098 0.798605,-0.456378 0,-0.508851 0.456671,-0.771464 0.987386,-0.567811 0.239623,0.09195 0.317275,0.03996 0.248553,-0.166404 -0.136143,-0.408843 -0.823498,-0.514739 -1.047438,-0.161369 -0.100087,0.157934 -0.183447,0.183074 -0.18524,0.05586 -0.0017,-0.127208 -0.386591,-0.246309 -0.855106,-0.264669 -0.468516,-0.01836 -0.851846,0.03781 -0.851846,0.124811 0,0.087 0.335414,0.158187 0.745366,0.158187 0.40995,0 0.745364,0.07188 0.745364,0.159722 0,0.08785 0,0.30347 0,0.479163 0,0.223103 -0.224793,0.319442 -0.745364,0.319442 -0.827885,0 -1.015461,-0.344277 -0.266203,-0.488591 0.458937,-0.08839 0.460038,-0.09351 0.02607,-0.121292 -0.249196,-0.01595 -0.572387,0.114748 -0.7182,0.290441 -0.249596,0.300746 -1.064807,0.455967 -1.064807,0.202746 0,-0.06418 0.26354,-0.346474 0.585644,-0.627314 l 0.585644,-0.510619 -1.646461,0.01523 c -0.905554,0.0084 -1.600245,0.09 -1.543759,0.181399 0.05649,0.0914 0.294272,0.116079 0.528415,0.05485 0.237941,-0.06222 0.425709,-0.0064 0.425709,0.126474 0,0.228281 -0.543018,0.340088 -1.331009,0.274051 -0.204975,-0.01719 -0.372683,0.111388 -0.372683,0.285701 0,0.174956 -0.190798,0.316931 -0.425922,0.316931 -0.668402,0 -0.497879,-0.571252 0.212961,-0.713421 0.443394,-0.08868 0.638885,-0.252762 0.638885,-0.536239 0,-0.446942 -0.392174,-0.666993 -1.188707,-0.666993 -0.481542,0 -0.514986,0.07521 -0.514986,1.15814 0,1.131173 0.01363,1.157208 0.585645,1.118048 0.322104,-0.02205 0.647846,-0.12593 0.723872,-0.230846 z m 0.820097,-0.341649 c 0,-0.117129 0.191666,-0.212962 0.425923,-0.212962 0.234257,0 0.425923,0.09583 0.425923,0.212962 0,0.117128 -0.191666,0.212961 -0.425923,0.212961 -0.234257,0 -0.425923,-0.09583 -0.425923,-0.212961 z m 1.068068,0.05324 c 0.0094,-0.458555 1.061547,-1.131326 1.061547,-0.678757 0,0.117129 -0.1432,0.267912 -0.31822,0.335074 -0.17502,0.06716 -0.265196,0.207903 -0.200392,0.312757 0.06481,0.104856 -0.03158,0.190647 -0.214183,0.190647 -0.182607,0 -0.330544,-0.07187 -0.328752,-0.159721 z m -2.77176,-1.118048 c 0,-0.281201 0.115677,-0.355799 0.425924,-0.274667 0.234257,0.06126 0.425923,0.184859 0.425923,0.274667 0,0.08981 -0.191666,0.213407 -0.425923,0.274667 -0.310247,0.08113 -0.425924,0.0065 -0.425924,-0.274667 z M 118.3987,46.357732 V 24.103256 H 102.21361 86.028545 V 46.357732 68.61221 h 16.185065 16.18509 z m -30.223273,5.871623 c -0.257727,-0.163131 -0.246239,-0.342782 0.07808,-1.221274 0.928077,-2.513851 3.231005,-6.25266 4.107794,-6.669011 0.424779,-0.20171 2.247235,-0.306707 6.551405,-0.377433 3.279614,-0.0539 6.043664,-0.173375 6.142334,-0.265519 0.0987,-0.09214 -0.5482,-0.957699 -1.43749,-1.92345 -0.88929,-0.965759 -1.6169,-1.838563 -1.6169,-1.93957 0,-0.101006 -0.0958,-0.183655 -0.21295,-0.183655 -0.47305,0 -0.16017,0.876717 0.75801,2.123973 l 0.97098,1.318983 -3.72217,-0.07102 c -2.047193,-0.03905 -3.795948,-0.145002 -3.886124,-0.23542 -0.220787,-0.221371 0.470211,-1.599872 1.906452,-3.803256 l 1.187941,-1.822457 2.597171,-0.139647 c 4.48283,-0.24104 8.36312,-0.175276 8.80695,0.149263 0.37693,0.275624 0.35602,0.361321 -0.45467,1.86341 -0.46737,0.865978 -1.53937,2.641221 -2.38221,3.944993 l -1.53244,2.370492 -6.16718,0.08518 c -3.934783,0.05433 -6.248627,0.166624 -6.392192,0.31019 -0.158047,0.158046 0.197026,0.680855 1.193021,1.756626 2.306964,2.491727 2.903414,2.546594 1.237906,0.113864 l -0.980433,-1.432063 3.613563,0.13643 c 3.968105,0.149812 4.346995,0.218082 4.154445,0.748509 -0.17819,0.490868 -1.18272,1.982979 -2.56884,3.815678 l -1.167725,1.543972 -5.241284,-0.003 c -2.882701,-0.0018 -5.377252,-0.08932 -5.543449,-0.194521 z"
       id="path6360"
       sodipodi:insensitive="true" />
  </g>
</svg>
